<svg preserveAspectRatio="none" width="100%" height="100%" overflow="visible" style="display: block;" viewBox="0 0 43.5528 43.5528" fill="none" xmlns="http://www.w3.org/2000/svg">
<g id="Icon">
<path id="Logo" d="M11.0341 27.6085L17.9896 23.7055L18.106 23.3654L17.9896 23.1774H17.6495L16.4857 23.1058L12.5111 22.9983L9.06465 22.8551L5.72561 22.6761L4.88413 22.497L4.09637 21.4586L4.17694 20.9394L4.88413 20.465L5.89569 20.5545L8.13365 20.7067L11.4906 20.9394L13.9255 21.0826L17.5331 21.4586H18.106L18.1866 21.2259L17.9896 21.0826L17.8375 20.9394L14.3641 18.5851L10.6044 16.0965L8.63496 14.6642L7.56969 13.9391L7.03258 13.2587L6.79983 11.7727L7.76663 10.7074L9.06465 10.797L9.39587 10.8865L10.7118 11.898L13.5227 14.0733L17.1929 16.7768L17.73 17.2244L17.9449 17.0722L17.9717 16.9648L17.73 16.562L15.7338 12.9544L13.6032 9.2841L12.6543 7.76229L12.4037 6.8492C12.3142 6.47322 12.2515 6.15991 12.2515 5.77498L13.3526 4.28002L13.9613 4.08308L15.4294 4.28002L16.0471 4.81713L16.9602 6.90291L18.4372 10.1882L20.7289 14.6552L21.4003 15.9801L21.7584 17.2065L21.8927 17.5825H22.1254V17.3676L22.3134 14.8522L22.6625 11.7638L23.0027 7.78915L23.1191 6.67016L23.6741 5.32739L24.7751 4.60229L25.6345 5.01407L26.3417 6.02563L26.2433 6.67912L25.8225 9.40943L24.9989 13.6884L24.4618 16.553H24.7751L25.1332 16.1949L26.5834 14.2703L29.0183 11.2267L30.0925 10.0182L31.3458 8.68433L32.1515 8.04875H33.6733L34.7923 9.71379L34.291 11.4325L32.7244 13.4199L31.4264 15.1028L29.5644 17.6093L28.4006 19.6145L28.5081 19.7757L28.7856 19.7488L32.9929 18.8536L35.2667 18.4419L37.9791 17.9764L39.2055 18.5493L39.3398 19.1311L38.8564 20.3217L35.956 21.0379L32.5543 21.7182L27.4876 22.9178L27.4249 22.9625L27.4965 23.0521L29.7792 23.2669L30.755 23.3206H33.1451L37.5942 23.6518L38.7579 24.4217L39.4562 25.3616L39.3398 26.0778L37.5494 26.9909L35.1324 26.418L29.4928 25.0752L27.5592 24.5918H27.2906V24.7529L28.902 26.3284L31.8561 28.9961L35.5532 32.4336L35.7412 33.284L35.2667 33.9554L34.7654 33.8838L31.5159 31.4399L30.2626 30.3389L27.4249 27.9487H27.2369V28.1994L27.8904 29.1572L31.3458 34.3493L31.5248 35.9427L31.2742 36.4619L30.379 36.7752L29.3943 36.5962L27.3712 33.7585L25.2854 30.5627L23.6025 27.6981L23.3966 27.8144L22.4029 38.5119L21.9374 39.058L20.8632 39.4698L19.968 38.7894L19.4936 37.6883L19.968 35.513L20.5409 32.6753L21.0064 30.4194L21.4272 27.6175L21.6778 26.6865L21.6599 26.6238L21.454 26.6507L19.3414 29.5511L16.1277 33.8927L13.5853 36.6141L12.9766 36.8558L11.9203 36.3097L12.0188 35.334L12.6096 34.4657L16.1277 29.9897L18.2492 27.2147L19.6189 25.6123L19.6099 25.3795H19.5294L10.1836 31.4489L8.51858 31.6637L7.80244 30.9923L7.89195 29.8913L8.23212 29.5332L11.043 27.5996L11.0341 27.6085Z" fill="var(--fill-0, white)"/>
</g>
</svg>
