<svg preserveAspectRatio="none" width="100%" height="100%" overflow="visible" style="display: block;" viewBox="0 0 16 16" fill="none" xmlns="http://www.w3.org/2000/svg">
<g id="Icon">
<path id="Vector" fill-rule="evenodd" clip-rule="evenodd" d="M8 1.33333C4.3181 1.33333 1.33333 4.3181 1.33333 8C1.33333 11.6819 4.3181 14.6667 8 14.6667C11.6819 14.6667 14.6667 11.6819 14.6667 8C14.6667 4.3181 11.6819 1.33333 8 1.33333ZM10.516 6.75553C10.7491 6.47055 10.7071 6.05053 10.4221 5.81738C10.1372 5.58423 9.7172 5.62623 9.484 5.91119L6.95053 9.00773L6.13807 8.19527C5.87772 7.93493 5.45561 7.93493 5.19526 8.19527C4.93491 8.4556 4.93491 8.87773 5.19526 9.13807L6.52859 10.4714C6.66178 10.6046 6.84507 10.6753 7.0332 10.6659C7.22133 10.6565 7.39667 10.5679 7.516 10.4222L10.516 6.75553Z" fill="var(--fill-0, #00A6F4)"/>
</g>
</svg>
