<svg preserveAspectRatio="none" width="100%" height="100%" overflow="visible" style="display: block;" viewBox="0 0 20 20" fill="none" xmlns="http://www.w3.org/2000/svg">
<g id="Icon">
<path id="Vector" fill-rule="evenodd" clip-rule="evenodd" d="M10 1.66667C5.39763 1.66667 1.66667 5.39763 1.66667 10C1.66667 14.6023 5.39763 18.3333 10 18.3333C14.6023 18.3333 18.3333 14.6023 18.3333 10C18.3333 5.39763 14.6023 1.66667 10 1.66667ZM13.145 8.44442C13.4364 8.08818 13.3839 7.56317 13.0277 7.27173C12.6715 6.98029 12.1465 7.03279 11.855 7.38899L8.68817 11.2597L7.67259 10.2441C7.34715 9.91867 6.81952 9.91867 6.49408 10.2441C6.16864 10.5695 6.16864 11.0972 6.49408 11.4226L8.16074 13.0892C8.32722 13.2557 8.55633 13.3441 8.7915 13.3323C9.02667 13.3206 9.24583 13.2099 9.395 13.0277L13.145 8.44442Z" fill="var(--fill-0, #00A6F4)"/>
</g>
</svg>
