<svg preserveAspectRatio="none" width="100%" height="100%" overflow="visible" style="display: block;" viewBox="0 0 18 18" fill="none" xmlns="http://www.w3.org/2000/svg">
<g id="Icon">
<path id="Vector" d="M8.25 13.875V9.75H4.125C3.71079 9.75 3.375 9.41422 3.375 9C3.375 8.58578 3.71079 8.25 4.125 8.25H8.25V4.125C8.25 3.71079 8.58578 3.375 9 3.375C9.41422 3.375 9.75 3.71079 9.75 4.125V8.25H13.875C14.2892 8.25 14.625 8.58578 14.625 9C14.625 9.41422 14.2892 9.75 13.875 9.75H9.75V13.875C9.75 14.2892 9.41422 14.625 9 14.625C8.58578 14.625 8.25 14.2892 8.25 13.875Z" fill="var(--fill-0, #BBBBBB)"/>
</g>
</svg>
