<svg preserveAspectRatio="none" width="100%" height="100%" overflow="visible" style="display: block;" viewBox="0 0 13.9946 13.9946" fill="none" xmlns="http://www.w3.org/2000/svg">
<g id="Icon" clip-path="url(#clip0_0_6)">
<path id="Vector" d="M2.90388 2.04088C3.2905 2.04088 3.66129 2.19447 3.93468 2.46785C4.20806 2.74124 4.36165 3.11203 4.36165 3.49865C4.36165 3.88528 4.20806 4.25606 3.93468 4.52945C3.66129 4.80283 3.2905 4.95642 2.90388 4.95642C2.51725 4.95642 2.14647 4.80283 1.87308 4.52945C1.5997 4.25606 1.44611 3.88528 1.44611 3.49865C1.44611 3.11203 1.5997 2.74124 1.87308 2.46785C2.14647 2.19447 2.51725 2.04088 2.90388 2.04088ZM1.74933 5.24798H4.08176V12.2453H1.74933V5.24798ZM5.83108 5.24798H8.04689V6.23926H8.07605C8.3851 5.65615 9.14314 5.04389 10.2744 5.04389C12.6243 5.04389 13.0616 6.58912 13.0616 8.60085V12.2453H11.0791V9.09649C11.0791 8.34428 11.0674 7.37632 10.0295 7.37632C8.97987 7.37632 8.8166 8.19267 8.8166 9.03818V12.2453H5.83108V5.24798Z" fill="var(--fill-0, #111111)"/>
</g>
<defs>
<clipPath id="clip0_0_6">
<rect width="13.9946" height="13.9946" fill="white"/>
</clipPath>
</defs>
</svg>
