<svg preserveAspectRatio="none" width="100%" height="100%" overflow="visible" style="display: block;" viewBox="0 0 13.9946 13.9946" fill="none" xmlns="http://www.w3.org/2000/svg">
<g id="Icon" clip-path="url(#clip0_0_4)">
<path id="Vector" d="M6.9973 0.291554C3.13129 0.291554 3.28827e-07 3.37037 3.28827e-07 7.1664C3.28827e-07 10.1986 2.00589 12.7759 4.78149 13.6856C5.13135 13.7555 5.25964 13.5339 5.25964 13.3473V12.1636C3.31789 12.5835 2.90971 11.2307 2.90971 11.2307C2.589 10.426 2.12835 10.2161 2.12835 10.2161C1.49276 9.78456 2.17499 9.79039 2.17499 9.79039C2.87472 9.83704 3.24791 10.5076 3.24791 10.5076C3.87184 11.5747 4.88645 11.2657 5.28879 11.0849C5.3471 10.6359 5.5337 10.3268 5.73195 10.1519C4.18089 9.97698 2.54235 9.38221 2.54235 6.7349C2.54235 5.97686 2.81641 5.35877 3.25958 4.87479C3.1896 4.69985 2.95053 3.99429 3.32955 3.03799C3.32955 3.03799 3.91266 2.8514 5.25381 3.74939C6.39948 3.4398 7.60679 3.4398 8.75246 3.74939C10.0819 2.8514 10.6709 3.03799 10.6709 3.03799C11.0499 3.99429 10.8108 4.69985 10.7409 4.87479C11.1898 5.35877 11.4581 5.97686 11.4581 6.7349C11.4581 9.38804 9.81954 9.97115 8.25681 10.1403C8.50755 10.356 8.72913 10.7817 8.72913 11.4348V13.3532C8.72913 13.5398 8.85742 13.7614 9.20728 13.6914C10.5824 13.233 11.7814 12.3591 12.6389 11.1904C13.4963 10.0217 13.97 8.61572 13.9946 7.1664C13.9946 3.37037 10.8633 0.291554 6.9973 0.291554Z" fill="var(--fill-0, #111111)"/>
</g>
<defs>
<clipPath id="clip0_0_4">
<rect width="13.9946" height="13.9946" fill="white"/>
</clipPath>
</defs>
</svg>
