<svg preserveAspectRatio="none" width="100%" height="100%" overflow="visible" style="display: block;" viewBox="0 0 18 18" fill="none" xmlns="http://www.w3.org/2000/svg">
<g id="Icon - Jakub logo" clip-path="url(#clip0_0_4)">
<path id="Vector" d="M14.2955 10.4085L14.3121 10.531L14.3279 10.6528L14.3427 10.7739L14.3561 10.894L14.3688 11.0135L14.3802 11.132L14.3905 11.2495L14.3997 11.3661L14.4079 11.4818L14.4151 11.5964L14.421 11.71L14.4258 11.8224L14.4296 11.9338L14.4322 12.0441L14.4336 12.153L14.434 12.2609L14.4332 12.3674L14.4313 12.4728L14.4283 12.5769L14.4242 12.6795L14.4187 12.7809L14.4121 12.8811L14.4044 12.9795L14.3955 13.0767L14.3856 13.1726L14.3745 13.2669L14.3621 13.3594L14.3486 13.4507L14.3338 13.5403L14.3181 13.6285L14.301 13.7149L14.2827 13.7999L14.2633 13.8832L14.2429 13.9648L14.221 14.0448L14.1983 14.1228L14.1741 14.1994L14.1488 14.2741L14.1225 14.3471L14.0949 14.4184L14.0661 14.4878L14.0362 14.5555L14.0052 14.6214L13.973 14.6853L13.9395 14.7474L13.905 14.8077L13.8694 14.8662L13.8326 14.9226L13.7945 14.9773L13.7556 15.0299L13.7154 15.0808L13.6739 15.1296L13.6316 15.1765L13.588 15.2215L13.5432 15.2644L13.4975 15.3056L13.4505 15.3446L13.4025 15.3818L13.3535 15.4169L13.3034 15.45L13.2522 15.4811L13.2 15.5103L13.1465 15.5375L13.0922 15.5627L13.0369 15.5859L12.9805 15.6069L12.923 15.626L12.8647 15.6433L12.8053 15.6584L12.7449 15.6715L12.6834 15.6826L12.6211 15.6919L12.5578 15.699L12.4936 15.7043L12.4283 15.7074L12.3622 15.7087L12.2952 15.7078L12.2273 15.7051L12.1586 15.7005L12.0889 15.694L12.0184 15.6853L11.9468 15.6748L11.8746 15.6624L11.8016 15.6481L11.7279 15.6319L11.6532 15.6136L11.5778 15.5936L11.5016 15.5718L11.4248 15.5482L11.3471 15.5225L11.2686 15.4952L11.1894 15.4659L11.1096 15.4348L11.0292 15.4022L10.9482 15.3675L10.8663 15.3313L10.784 15.2932L10.701 15.2535L10.6175 15.212L10.5333 15.1689L10.4484 15.1241L10.3632 15.0776L10.2773 15.0294L10.191 14.9798L10.1042 14.9287L10.0169 14.8759L9.92909 14.8214L9.84089 14.7657L9.75226 14.7082L9.66322 14.6495L9.57395 14.5892L9.48408 14.5275L9.39398 14.4644L9.30367 14.4001L9.21273 14.3342L9.12179 14.2671L9.03042 14.1985L8.93884 14.1289L8.84706 14.058L8.75508 13.9857L8.66287 13.9125L8.57045 13.8378L8.47782 13.762L8.3852 13.6853L8.29238 13.6074L8.19953 13.5286L8.10669 13.4486L8.01364 13.3676L7.92059 13.2856L7.82755 13.2027L7.73429 13.119L7.64147 13.0342L7.54842 12.9488L7.45538 12.8623L7.36253 12.7753L7.26991 12.6873L7.1773 12.5986L7.08486 12.5092L6.99267 12.4191L6.90046 12.3285L6.80868 12.2372L6.7169 12.1455L6.62553 12.0529L6.53439 11.9599L6.44365 11.8665L6.35314 11.7727L6.26304 11.6783L6.17314 11.5836L6.08367 11.4885L5.99463 11.393L5.906 11.2973L5.8178 11.2012L5.73001 11.105L5.64286 11.0085L5.55593 10.9119L5.46983 10.8152L5.38415 10.7182L5.29889 10.6212L5.21427 10.524L5.13027 10.4271L5.04691 10.3299L4.96418 10.2329L4.88207 10.1359L4.80082 10.0389L4.71999 9.94218L4.63999 9.84563L4.56083 9.74929L4.48231 9.65295L4.40464 9.55702L4.32759 9.46131L4.2516 9.36581L4.17623 9.27074L4.10171 9.17607L3.9554 8.98781L3.88362 8.89439L3.81269 8.80122L3.74279 8.70867L3.67374 8.61672L3.60575 8.52523L3.5386 8.43435L3.47249 8.3441L3.40744 8.25449L3.34344 8.16552L3.2805 8.07717L3.21863 7.98944L3.15777 7.90257L3.09821 7.81654L3.03946 7.73112L2.98201 7.64656L2.9258 7.56284L2.87063 7.47996L2.81653 7.39792L2.7639 7.31673L2.71213 7.23637L2.66181 7.15707L2.61276 7.07881L2.56478 7.00141L2.51824 6.92505L2.47277 6.84974L2.42857 6.77526L2.38584 6.70207L2.34436 6.62971L2.30414 6.55861L2.26542 6.48855L2.22775 6.41976L2.19175 6.35204L2.15679 6.28535L2.12333 6.21992L2.09133 6.15555L2.0608 6.09245L2.03154 6.03061L2.00354 5.97003L1.97723 5.91071L1.95218 5.85264L1.9286 5.79563L1.9065 5.7401L1.88587 5.68583L1.86671 5.63281L1.84903 5.58129L1.83282 5.53081L1.81787 5.48178L1.80461 5.43424L1.79282 5.38775L1.78251 5.34295L1.77387 5.2992L1.76651 5.25713L1.76082 5.21611L1.7564 5.17678L1.75388 5.13869L1.75261 5.10187L1.75282 5.06675L1.75472 5.03288L1.75808 5.00028L1.76314 4.96935L1.76945 4.93969L1.77745 4.9115L1.78714 4.88479L1.79808 4.85935L1.81071 4.83535L1.82503 4.81285L1.84061 4.79183L1.85787 4.77205L1.87681 4.75374L1.89702 4.7369L1.91892 4.72156L1.94228 4.70747L1.96733 4.69485L1.99386 4.6837L2.02186 4.6738L2.05133 4.6654L2.08248 4.65846L2.1149 4.65278L2.149 4.64856L2.18459 4.64582L2.22183 4.64435L2.26037 4.64414L2.30056 4.64541L2.34205 4.64793L2.3852 4.65194L2.42984 4.65719L2.47572 4.66372L2.52329 4.67149L2.57214 4.68076L2.62266 4.69127L2.67445 4.70305L2.7277 4.71608L2.78223 4.7304L2.83844 4.74574L2.89589 4.76258L2.95484 4.78068L3.01504 4.7998L3.07673 4.82022L3.13967 4.84167L3.20408 4.8644L3.26976 4.88837L3.33671 4.91341L3.40513 4.93949L3.47459 4.96663L3.54553 4.99502L3.61775 5.02448L3.69121 5.05497L3.76595 5.08653L3.84194 5.11891L3.91899 5.15258L3.99751 5.18707L4.07708 5.22262L4.15771 5.25903L4.23959 5.29646L4.32274 5.33495L4.40695 5.37408L4.49221 5.41426L4.66609 5.49693L4.75452 5.53964L4.84419 5.58317L4.9347 5.62735L5.02648 5.67237L5.11912 5.71803L5.21257 5.7645L5.40268 5.85959L5.49908 5.90817L5.69465 6.00705L5.99443 6.15997L6.40514 6.37118L6.93456 6.64527L7.15077 6.75761L7.2596 6.81398L8.03639 7.21659L8.26227 7.33293L8.37552 7.39141L8.7176 7.56683L8.8319 7.62531L8.94663 7.68379L9.17673 7.80055L9.40723 7.91707L9.5228 7.97515L9.75395 8.09084L9.86952 8.14848L9.98509 8.20591L10.1007 8.26312L10.3316 8.37671L10.447 8.43308L10.5623 8.48925L10.7922 8.60054L11.0214 8.71055L11.2498 8.81887L11.3635 8.87253L11.4768 8.92575L11.7024 9.0307L11.9266 9.13379L12.038 9.18448L12.1489 9.23476L12.2595 9.2846L12.3694 9.33384L12.4788 9.38242L12.5876 9.43038L12.6958 9.47792L12.8036 9.52484L12.9106 9.57111L13.0169 9.61656L13.1228 9.66158L13.2276 9.70595L13.332 9.74972L13.4354 9.79261L13.5383 9.83491L13.6402 9.87656L13.7412 9.91757L13.8417 9.95774L13.941 9.9973L14.0398 10.036L14.1372 10.0741L14.2341 10.1113L14.3298 10.1477L14.4248 10.1835L14.5185 10.2186L14.6113 10.2527L14.7031 10.2861L14.7938 10.3187L14.8835 10.3507L14.9721 10.3816L15.0597 10.4119L15.146 10.4414L15.2313 10.47L15.3152 10.4977L15.398 10.5249L15.4797 10.551L15.5601 10.5764L15.6392 10.6008L15.7171 10.6246L15.7937 10.6473L15.8691 10.6694L15.9432 10.6906L16.0158 10.7108L16.0872 10.7304L16.1571 10.7491L16.2257 10.767L16.2929 10.7838L16.3587 10.8L16.423 10.8154L16.4859 10.8299L16.5474 10.8436L16.6074 10.8564L16.6659 10.8684L16.7229 10.8798L16.7783 10.8901L16.8324 10.8997L16.8848 10.9083L16.9355 10.9163L16.985 10.9235L17.0326 10.93L17.0789 10.9355L17.1233 10.9403L17.1663 10.9443L17.2077 10.9475L17.2473 10.95L17.2854 10.9519L17.3219 10.9527L17.3566 10.953L17.3896 10.9525L17.4212 10.9513L17.4509 10.9494L17.4789 10.9466L17.5052 10.9433L17.53 10.9393L17.5528 10.9344L17.574 10.9292L17.5936 10.9231L17.6113 10.9163L17.6275 10.909L17.6418 10.901L17.6542 10.8922L17.6652 10.8829L17.6742 10.8732L17.6814 10.8627L17.6871 10.8518L17.6909 10.84L17.6928 10.828L17.6932 10.8152L17.6917 10.8019L17.6883 10.7882L17.6833 10.7739L17.6766 10.7592L17.6679 10.7441L17.6576 10.7283L17.6456 10.7121L17.6317 10.6955L17.6161 10.6784L17.5987 10.661L17.5797 10.6431L17.5587 10.625L17.5362 10.6063L17.5117 10.5874L17.4856 10.568L17.4578 10.5484L17.4282 10.5284L17.3968 10.5081L17.3637 10.4874L17.329 10.4666L17.2926 10.4456L17.2543 10.4241L17.2145 10.4024L17.1728 10.3806L17.1296 10.3585L17.0846 10.3364L17.0381 10.3139L16.9899 10.2914L16.94 10.2687L16.8884 10.2457L16.8351 10.2228L16.7804 10.1997L16.724 10.1765L16.6659 10.1532L16.6063 10.1298L16.5453 10.1065L16.4825 10.0831L16.4181 10.0596L16.3524 10.0362L16.2851 10.0127L16.2162 9.9893L16.1457 9.96597L16.0739 9.94261L16.0007 9.91927L15.9259 9.89611L15.8497 9.87298L15.7721 9.84985L15.6929 9.82692L15.6125 9.80419L15.5308 9.78147L15.4477 9.75897L15.363 9.73667L15.2771 9.71438L15.19 9.69249L15.1016 9.67062L15.0119 9.64894L14.921 9.62771L14.8287 9.60646L14.7353 9.58563L14.6405 9.56502L14.5448 9.54462L14.4477 9.52464L14.3496 9.50465L14.2505 9.48528L14.1501 9.46593L14.0486 9.44701L13.9463 9.4285L13.8427 9.4104L13.7381 9.39252L13.6326 9.37485L13.5261 9.35781L13.4187 9.341L13.3103 9.32457L13.2011 9.30839L13.0908 9.29281L12.9798 9.27767L12.8678 9.26274L12.7552 9.24844L12.6417 9.23435L12.5274 9.22087L12.4125 9.20761L12.2969 9.19499L12.1805 9.1828L12.0635 9.17102L11.9456 9.15967L11.8273 9.14873L11.7083 9.13821L11.5888 9.12831L11.4688 9.11886L11.3482 9.1098L11.2271 9.10139L11.1057 9.0934L10.9835 9.08583L10.861 9.07889L10.7383 9.07214L10.6152 9.06605L10.4916 9.06059L10.3676 9.05553L10.2436 9.05091L10.1192 9.0469L9.99436 9.04334L9.86952 9.04017L9.74448 9.03766L9.61922 9.03555L9.49396 9.03387L9.36851 9.03281L9.24282 9.03217H9.11737L8.99168 9.0326L8.866 9.03344L8.74033 9.03471L8.61466 9.03659L8.48919 9.03892L8.36372 9.04165L8.23848 9.04502L8.11344 9.0488L7.98838 9.05302L7.86377 9.05764L7.73914 9.0629L7.61494 9.06836L7.49095 9.07448L7.36738 9.08098L7.24402 9.08793L7.12109 9.0953L6.99856 9.10307L6.87647 9.11127L6.75479 9.1199L6.63353 9.12895L6.51271 9.13821L6.3925 9.14809L6.27271 9.1582L6.15377 9.16891L6.03505 9.17986L5.91717 9.191L5.79991 9.20279L5.68328 9.21477L5.5675 9.22698L5.45236 9.2396L5.33784 9.25263L5.22415 9.26589L5.11133 9.27935L4.99913 9.29324L4.88798 9.30733L4.77745 9.32185L4.66799 9.33635L4.55936 9.35129L4.45179 9.36644L4.34506 9.3818L4.23939 9.39715L4.13456 9.41294L4.03077 9.42891L3.92803 9.44511L3.82658 9.46131L3.72594 9.47772L3.62659 9.49435L3.52829 9.51095L3.43102 9.52779L3.24031 9.56166L3.05421 9.59594L2.96305 9.61319L2.87317 9.63043L2.78454 9.64769L2.61129 9.6824L2.52667 9.69965L2.44352 9.71689L2.36162 9.73415L2.28099 9.7514L2.12437 9.78568L2.04795 9.80272L1.97323 9.81955L1.89997 9.83639L1.82819 9.853L1.75787 9.8694L1.68904 9.8858L1.62167 9.902L1.55599 9.918L1.49179 9.93377L1.36822 9.9649L1.30885 9.98006L1.25117 9.99499L1.14044 10.024L1.08739 10.0381L1.03624 10.052L0.98677 10.0657L0.938774 10.0787L0.892671 10.0918L0.848043 10.1042L0.80531 10.1164L0.76426 10.1284L0.724895 10.1397L0.687213 10.1509L0.651216 10.1614L0.617112 10.1717L0.584693 10.1816L0.554169 10.191L0.525119 10.1999L0.498173 10.2085L0.472701 10.2165L0.449335 10.2241L0.407442 10.2377L0.389338 10.2438L0.372919 10.2495L0.358394 10.2546L0.345553 10.259L0.334606 10.263L0.325555 10.2666L0.318187 10.2693L0.312503 10.2716L0.308923 10.2735L0.306818 10.2745V10.2752H0.308502L0.312081 10.2745L0.317344 10.2733L0.324501 10.2714L0.333344 10.2689L0.344078 10.2659L0.356709 10.2621L0.371025 10.2577L0.387023 10.2527L0.404916 10.247L0.424704 10.2407L0.446177 10.2337L0.469334 10.2262L0.494384 10.2178L0.521118 10.2089L0.549749 10.1992L0.580062 10.1889L0.612059 10.1778L0.645953 10.1662L0.757524 10.1271L0.798153 10.1126L0.840465 10.0976L0.884463 10.0819L0.930144 10.0653L0.977509 10.0482L1.07729 10.0118L1.1295 9.99245L1.18339 9.9727L1.29622 9.93083L1.35475 9.90896L1.47684 9.8631L1.54042 9.83911L1.73956 9.76338L1.80903 9.73667L1.87997 9.70953L1.95218 9.68177L2.17784 9.59447L2.25573 9.56397L2.49803 9.46951L2.75212 9.36959L3.3883 9.11759L3.58049 9.04101L3.67816 9.0019L3.7771 8.96255L3.87689 8.92258L3.97771 8.88241L4.0796 8.8416L4.18255 8.80059L4.28633 8.75892L4.49662 8.67479L4.71072 8.58938L4.81893 8.54605L5.48476 8.28057L5.59825 8.23535L5.82707 8.14469L5.94243 8.09883L6.05841 8.05318L6.17504 8.00712L6.29208 7.96105L6.52743 7.8687L6.76489 7.77594L7.00382 7.68318L7.12381 7.63668L7.48589 7.49763L7.7284 7.40528L7.85009 7.35942L7.97175 7.31336L8.21573 7.22207L8.33785 7.17662L8.58244 7.0866L8.70476 7.04178L8.94917 6.95301L9.07126 6.90926L9.19336 6.86573L9.31545 6.82239L9.43734 6.77948L9.55902 6.73699L9.68048 6.69471L9.80174 6.65305L9.92279 6.6116L10.0436 6.5708L10.164 6.53042L10.2842 6.49045L10.4042 6.45112L10.5236 6.41219L10.6427 6.3737L10.7615 6.33584L10.8798 6.29861L10.9974 6.262L11.1147 6.22581L11.2315 6.19049L11.3477 6.15555L11.4635 6.12147L11.5787 6.08782L11.6932 6.05522L11.8071 6.02303L11.9203 5.99169L12.0327 5.96099L12.1447 5.9311L12.2557 5.90208L12.3662 5.87389L12.4757 5.84634L12.5845 5.81963L12.6925 5.79375L12.7998 5.76871L12.9061 5.74452L13.0116 5.72138L13.116 5.69909L13.2196 5.67763L13.3223 5.65701L13.424 5.63746L13.5248 5.61872L13.6246 5.60107L13.7231 5.58423L13.8208 5.56867L13.9175 5.55374L14.013 5.54005L14.1075 5.52743L14.2008 5.51565L14.293 5.50493L14.3839 5.49546L14.4738 5.48683L14.5624 5.47947L14.6498 5.47317L14.7359 5.46768L14.821 5.4637L14.9048 5.46055L14.987 5.45864L15.0681 5.4578L15.1481 5.45801L15.2264 5.45948L15.3037 5.46202L15.3794 5.4658L15.4538 5.47063L15.5268 5.47675L15.5986 5.48388L15.6687 5.49231L15.7375 5.50176L15.8049 5.5127L15.8708 5.52449L15.9354 5.53774L15.9984 5.55204L16.0598 5.5674L16.1198 5.58423L16.1783 5.60211L16.2352 5.62126L16.2908 5.64145L16.3447 5.6629L16.3969 5.68563L16.4478 5.7094L16.4968 5.73464L16.5446 5.76092L16.5907 5.78827L16.6351 5.81688L16.6781 5.84675L16.7194 5.87788L16.7589 5.91007L16.797 5.94352L16.8333 5.97803L16.8682 6.01378L16.9012 6.0506L16.9328 6.08866L16.9625 6.12779L16.9907 6.16817L17.0172 6.20961L17.0421 6.25232L17.0654 6.29607L17.0869 6.34089L17.1067 6.38695L17.125 6.43385L17.1414 6.48202L17.1564 6.53126L17.1696 6.58154L17.181 6.63286L17.1909 6.68524L17.1991 6.73867L17.2054 6.79316L17.2103 6.84847L17.2134 6.90484L17.2149 6.96228L17.2147 7.02076L17.2128 7.08008L17.2092 7.14046L17.2042 7.20145L17.1972 7.26372L17.1886 7.32661L17.1785 7.39055L17.1667 7.45535L17.1532 7.52077L17.1381 7.58725L17.1214 7.65456L17.1029 7.72251L17.0829 7.7913L17.0614 7.86093L17.0383 7.93119L17.0134 8.00206L16.9869 8.0738L16.9589 8.14617L16.9294 8.21915L16.8983 8.29299L16.8657 8.36724L16.8313 8.44214L16.7956 8.51744L16.7583 8.59359L16.7194 8.67017L16.6789 8.74716L16.6373 8.82477L16.5939 8.9026L16.5491 8.98106L16.5027 9.05995L16.4549 9.13925L16.4057 9.21899L16.3552 9.29892L16.3032 9.37927L16.2497 9.45984L16.1948 9.54061L16.1386 9.62182L16.0811 9.70323L16.0221 9.78464L15.9619 9.86645L15.9003 9.94829L15.8373 10.0303L15.7731 10.1124L15.7076 10.1946L15.6411 10.2769L15.5731 10.3591L15.5039 10.4414L15.4335 10.5234L15.362 10.6057L15.2891 10.6877L15.2153 10.7697L15.1401 10.8516L15.0641 10.9332L14.9866 11.0146L14.9083 11.0958L14.829 11.1768L14.7483 11.2575L14.6669 11.3379L14.5844 11.4181L14.5008 11.4978L14.4164 11.5773L14.3309 11.6562L14.2444 11.7346L14.157 11.8127L14.0688 11.8903L13.9798 11.9675L13.8899 12.0441L13.7991 12.12L13.7073 12.1953L13.6152 12.2702L13.5219 12.3443L13.428 12.4177L13.3333 12.4904L13.2379 12.5624L13.1419 12.6337L13.0453 12.7044L12.9478 12.774L12.8499 12.843L12.7514 12.911L12.6523 12.9781L12.5525 13.0443L12.4523 13.1097L12.3515 13.1741L12.2502 13.2376L12.1485 13.3001L12.0464 13.3615L11.9439 13.4219L11.8407 13.4812L11.7374 13.5395L11.6338 13.5965L11.5298 13.6527L11.4254 13.7074L11.3208 13.7612L11.2157 13.8136L11.1107 13.8649L11.0054 13.915L10.8998 13.9636L10.7941 14.0111L10.6882 14.0574L10.5821 14.1022L10.476 14.1457L10.3699 14.188L10.2636 14.2288L10.1573 14.2682L10.051 14.3062L9.94467 14.3428L9.83858 14.378L9.73227 14.4116L9.62617 14.4438L9.52008 14.4747L9.41418 14.504L9.3085 14.5315L9.20283 14.5578L9.09757 14.5824L8.99231 14.6056L8.88727 14.627L8.78265 14.647L8.67823 14.6653L8.57403 14.6819L8.47025 14.6971L8.36689 14.7105L8.26374 14.7223L8.16102 14.7326L8.0587 14.7411L7.95682 14.748L7.85534 14.7532L7.7545 14.7566L7.65389 14.7585L7.55411 14.7587L7.45454 14.757L7.3556 14.7539L7.25727 14.7488L7.1596 14.7423L7.06257 14.7339L6.96614 14.7236L6.87015 14.7118L6.775 14.6983L6.68047 14.683L6.58679 14.666L6.49375 14.6472L6.40133 14.6268L6.30998 14.6045L6.21904 14.5806L6.12914 14.5551L6.0399 14.5275L5.95168 14.4985L5.86411 14.4678L5.77759 14.4352L5.69191 14.4011L5.60708 14.3651L5.52307 14.3275L5.44015 14.2882L5.35805 14.2471L5.27701 14.2046L5.19701 14.1603L5.11785 14.1142L5.03975 14.0667L4.9627 14.0174L4.88671 13.9665L4.81177 13.9139L4.73766 13.8599L4.66482 13.8041L4.59325 13.7469L4.52252 13.688L4.45306 13.6274L4.38464 13.5656L4.31728 13.502L4.25117 13.4371L4.18633 13.3704L4.12255 13.3024L4.06002 13.233L3.99856 13.1621L3.93836 13.0897L3.87941 13.0159L3.82173 12.9408L3.76531 12.8643L3.71017 12.7864L3.65607 12.7071L3.60344 12.6266L3.55207 12.5447L3.50176 12.4616L3.45291 12.3771L3.40533 12.2914L3.35923 12.2048L3.31419 12.1166L3.27062 12.0275L3.2283 11.9372L3.18725 11.8459L3.14767 11.7534L3.10936 11.6597L3.07252 11.5651L3.03672 11.4696L3.00262 11.3728L2.9698 11.2754L2.93821 11.1768L2.9081 11.0775L2.87926 10.9771L2.8519 10.876L2.8258 10.7741L2.80117 10.6713L2.77781 10.5678L2.7559 10.4637L2.73549 10.3587L2.71634 10.2531L2.69865 10.1469L2.68223 10.04L2.66729 9.9325L2.65381 9.8246L2.6416 9.71605L2.63066 9.60709L2.62139 9.4977L2.61319 9.3877L2.60667 9.27747L2.60118 9.16681L2.5974 9.05596L2.59486 8.94467L2.59362 8.83319L2.59382 8.72149L2.59529 8.60958L2.59824 8.49768L2.60245 8.38534L2.60814 8.27321L2.61507 8.16089L2.6235 8.04856L2.63297 7.93602L2.64391 7.8239L2.65633 7.71157L2.66981 7.59944L2.68476 7.48753L2.70096 7.37585L2.71865 7.26415L2.73739 7.15285L2.75738 7.04178L2.77885 6.93115L2.80137 6.82092L2.82539 6.71089L2.85042 6.6013L2.87675 6.49233L2.90452 6.38358L2.93337 6.27568L2.96327 6.16817L2.99463 6.06111L3.02705 5.95487L3.06074 5.84928L3.09547 5.74431L3.13147 5.64018L3.16851 5.5367L3.20682 5.43404L3.2462 5.33221L3.28662 5.23125L3.32808 5.13113L3.37081 5.03204L3.4146 4.9338L3.45944 4.83662L3.50534 4.74048L3.55228 4.64521L3.60027 4.55118L3.64911 4.45819L3.6992 4.36647L3.75016 4.27582L3.80195 4.18641L3.85478 4.09807L3.90868 4.01118L3.9634 3.92558L4.0192 3.84122L4.07561 3.75813L4.13309 3.6765L4.19138 3.59636L4.25054 3.51749L4.31053 3.44027L4.37138 3.36434L4.43305 3.29007L4.49558 3.2173L4.55873 3.14599L4.62273 3.07636L4.68757 3.00821L4.75282 2.94194L4.81913 2.87716L4.88587 2.81405L4.95344 2.75263L5.02165 2.69288L5.09048 2.63504L5.15995 2.57887L5.23004 2.52459L5.30057 2.47201L5.37194 2.42131L5.44373 2.3723L5.51594 2.32518L5.58878 2.28016L5.66223 2.23683L5.7359 2.1956L5.81022 2.15605L5.88496 2.11861L5.96031 2.08306L6.03589 2.04961L6.11188 2.01806L6.1883 1.98839L6.26492 1.96084L6.34197 1.93539L6.41943 1.91204L6.49712 1.89058L6.57522 1.87123L6.65354 1.85377L6.73206 1.83862L6.81079 1.82558L6.88973 1.81443L6.96888 1.8056L7.04825 1.79865L7.12782 1.79403L7.20738 1.79129L7.28718 1.79087L7.36717 1.79255L7.44715 1.79634L7.52715 1.80223L7.60735 1.81022L7.68735 1.82053L7.76755 1.83273L7.84778 1.84725L7.92798 1.86387L8.00795 1.88259L8.08795 1.90341L8.16795 1.92634L8.24795 1.95158L8.32774 1.97872L8.40731 2.00817L8.48688 2.03951L8.56624 2.07317L8.6456 2.10893L8.72454 2.14658L8.80327 2.18655L8.88179 2.22841L8.96011 2.27238L9.03821 2.31845L9.1161 2.36662L9.19356 2.41668L9.27082 2.46885L9.34767 2.52312L9.42429 2.57928L9.50028 2.63755L9.57629 2.6975L9.65164 2.75977L9.72659 2.82373L9.80131 2.88978L9.87541 2.9575L9.94909 3.02735L10.0224 3.09907L10.0952 3.1725L10.1674 3.24779L10.2392 3.32501L10.3105 3.40388L10.3813 3.48466L10.4514 3.56713L10.5211 3.65126L10.5901 3.73709L10.6585 3.82482L10.7265 3.914L10.7937 4.00488L10.8604 4.09743L10.9263 4.19146L10.9915 4.28717L11.0562 4.38435L11.1202 4.48302L11.1835 4.58315L11.2461 4.68475L11.3079 4.78782L11.3692 4.89236L11.4296 4.99817L11.4892 5.10525L11.5481 5.2138L11.6064 5.3234L11.6637 5.43447L11.7203 5.54658L11.7761 5.65996L11.8313 5.7746L11.8854 5.89009L11.9386 6.00685L11.9913 6.12464L12.043 6.24348L12.0938 6.36318L12.1439 6.48393L12.1929 6.60551L12.2411 6.72815L12.2885 6.85141L12.335 6.97553L12.3807 7.10049L12.4253 7.22626L12.4691 7.35249L12.5121 7.47955L12.554 7.60723L12.595 7.73554L12.6352 7.86428L12.6744 7.99366L12.7125 8.12344L12.7497 8.25365L12.7862 8.38407L12.8215 8.51513L12.8558 8.64638L12.8893 8.77807L12.9219 8.90975L12.9533 9.04187L12.984 9.17397L13.0135 9.30629L13.0421 9.43859L13.0697 9.57111L13.0965 9.70364L13.1221 9.83596L13.1468 9.96828L13.1703 10.1006L13.1931 10.2327L13.2148 10.3644L13.2356 10.4961L13.2552 10.6275L13.2739 10.7586L13.2918 10.8894L13.3084 11.0196L13.3242 11.1496L13.339 11.279L13.3529 11.408L13.3657 11.5363L13.3775 11.6642L13.3882 11.7914L13.3981 11.9179L13.407 12.0437L13.4149 12.1688L13.4219 12.2931L13.4278 12.4166L13.4328 12.5393L13.4369 12.661L13.4398 12.782L13.4419 12.9019L13.4432 13.0208L13.4434 13.1385L13.4425 13.2553L13.4408 13.371L13.4383 13.4854L13.4347 13.5988L13.4303 13.7109L13.4248 13.822L13.4185 13.9316L13.4114 14.0397L13.4034 14.1468L13.3943 14.2524L13.3844 14.3565L13.3737 14.4592L13.3619 14.5604L13.3495 14.6601L13.336 14.7583L13.3217 14.8548L13.3067 14.9499L13.2907 15.0433L13.2739 15.1351L13.2564 15.2251L13.2379 15.3132L13.2187 15.3999L13.1988 15.4847L13.1779 15.5675L13.1564 15.6487L13.1341 15.7281L13.111 15.8055L13.0872 15.881L13.0626 15.9546L13.0371 16.0263L13.011 16.096L12.9842 16.1637L12.9569 16.2293L12.9287 16.2928L12.8998 16.3545L12.8701 16.414L12.8401 16.4715L12.8091 16.5268L12.7777 16.5798L12.7455 16.6309L12.7129 16.6797L12.6794 16.7264L12.6455 16.7708L12.611 16.8131L12.5759 16.853L12.5403 16.8909L12.5041 16.9262L12.4672 16.9595L12.43 16.9906L12.3923 17.0192L12.354 17.0455L12.315 17.0697L12.2759 17.0914L12.2361 17.1109L12.1959 17.128L12.1553 17.1427L12.1142 17.1551L12.0727 17.1652L12.0308 17.1728L11.9885 17.1782L11.9458 17.1812L11.9026 17.1818L11.8593 17.1801L11.8157 17.1759L11.7715 17.1694L11.7271 17.1606L11.6825 17.1494L11.6374 17.1358L11.5921 17.1198L11.5467 17.1015L11.5008 17.0809L11.4549 17.0579L11.4086 17.0325L11.362 17.0047L11.3155 16.9748L11.2686 16.9424L11.2216 16.9077L11.1743 16.8707L11.1269 16.8316L11.0795 16.7899L11.0317 16.7462L10.9842 16.7001L10.9362 16.6517L10.8884 16.6012L10.8404 16.5484L10.7922 16.4933L10.7442 16.4361L10.696 16.3768L10.6478 16.3152L10.5996 16.2516L10.5514 16.1858L10.5032 16.1178L10.455 16.0478L10.4069 15.9756L10.3588 15.9016L10.3107 15.8254L10.2628 15.7472L10.215 15.667L10.1672 15.585L10.1194 15.5011L10.0718 15.415L10.0244 15.3271L9.97709 15.2375L9.92995 15.146L9.88298 15.0526L9.83626 14.9575L9.78953 14.8605L9.74322 14.7619L9.69691 14.6615L9.65101 14.5595L9.60511 14.456L9.55964 14.3506L9.51439 14.244L9.46933 14.1354L9.42449 14.0256L9.38009 13.9143L9.33586 13.8014L9.29187 13.6872L9.2483 13.5715L9.20493 13.4545L9.16198 13.3363L9.11947 13.2166L9.07715 13.0959L9.03506 12.9738L8.99358 12.8506L8.95232 12.7263L8.91147 12.6007L8.87105 12.4742L8.83107 12.3466L8.79149 12.218L8.75213 12.0885L8.71339 11.958L8.67487 11.8268L8.63697 11.6947L8.5995 11.5617L8.56246 11.4279L8.52582 11.2935L8.48962 11.1585L8.45405 11.0226L8.41868 10.8863L8.38393 10.7493L8.34983 10.612L8.31594 10.474L8.28268 10.3356L8.24985 10.1967L8.21763 10.0577L8.18585 9.9182L8.1547 9.77852L8.12395 9.63843L8.09386 9.49833L8.06416 9.35804L8.03512 9.21772L8.00648 9.0772L7.9785 8.93669L7.95113 8.79617L7.92417 8.65585L7.89766 8.51533L7.87197 8.37524L7.84671 8.23514L7.82208 8.09546L7.79787 7.956L7.7743 7.81675L7.75135 7.6777L7.72904 7.53928L7.70715 7.40129L7.68588 7.26372L7.66526 7.12657L7.64505 6.99003L7.62568 6.85415L7.60674 6.71889L7.58841 6.58426L7.57051 6.45026L7.55348 6.31712L7.53685 6.1848L7.52085 6.05311L7.50547 5.92249L7.49054 5.79269L7.47642 5.66397L7.46274 5.53606L7.44969 5.40943L7.43705 5.28363L7.42527 5.15888L7.41389 5.03542L7.40317 4.9132L7.39307 4.79203L7.38338 4.67212L7.37433 4.55349L7.36591 4.4361L7.35811 4.3202L7.35075 4.20556L7.34402 4.09259L7.3379 3.98088L7.33222 3.87067L7.32717 3.76192L7.32254 3.65463L7.31876 3.54923L7.31518 3.44512L7.31244 3.34289L7.31013 3.24213L7.30822 3.14325L7.30696 3.04607L7.30632 2.95057L7.30612 2.85695L7.30632 2.76503L7.30716 2.675L7.30843 2.58687L7.31033 2.50061L7.31264 2.41626L7.31538 2.33401L7.31876 2.25344L7.32254 2.17498L7.32696 2.09862L7.33158 2.02416L7.33686 1.952L7.34255 1.88174L7.34864 1.81359L7.35517 1.74754L7.36233 1.68359L7.36969 1.62195L7.37748 1.56221L7.38591 1.505L7.39454 1.44988L7.40379 1.39687L7.41326 1.34618L7.42316 1.29779L7.43347 1.25152L7.44421 1.20755L7.45538 1.16611L7.46675 1.12678L7.47853 1.08975L7.49074 1.05504L7.50316 1.02286L7.516 0.992778L7.52926 0.965221L7.54274 0.939978L7.55663 0.917049L7.57074 0.896435L7.58506 0.878345L7.59978 0.862566L7.61474 0.849316L7.6301 0.838377L7.64546 0.829751L7.66125 0.823441L7.67725 0.819655L7.69367 0.818182L7.7101 0.819233L7.72693 0.8226L7.74376 0.828489L7.76082 0.836693L7.77829 0.847211L7.79576 0.860042L7.81345 0.875399L7.83135 0.893068L7.84945 0.913052L7.86776 0.93556L7.88609 0.960384L7.9046 0.987519L7.92313 1.01697L7.94187 1.04873L7.96081 1.08281L7.97975 1.1192L7.99891 1.1577L8.01806 1.19872L8.03722 1.24184L8.0566 1.28749L8.07597 1.33503L8.09534 1.38509L8.11469 1.43726L8.13426 1.49153L8.15386 1.54791L8.17343 1.6066L8.19301 1.66739L8.21258 1.73029L8.23195 1.79529L8.25153 1.86239L8.2711 1.9316L8.29068 2.0027L8.31005 2.0759L8.32942 2.151L8.34879 2.2282L8.36816 2.3073L8.3873 2.38828L8.40647 2.47116L8.42541 2.55594L8.44435 2.6426L8.46329 2.73095L8.48203 2.82119L8.50077 2.91312L8.5193 3.00674L8.5376 3.10224L8.55593 3.19921L8.59193 3.3982L8.6096 3.50022L8.6273 3.60372L8.64477 3.7087L8.66203 3.81514L8.67907 3.92304L8.69592 4.03243L8.71255 4.14307L8.72896 4.2552L8.74538 4.36858L8.76138 4.48323L8.77717 4.59912L8.79275 4.71631L8.80812 4.83474L8.82327 4.95421L8.83802 5.07475L8.86707 5.31918L8.89484 5.5674L8.90832 5.69299L8.92158 5.81963L8.93463 5.94689L8.94727 6.075L8.95968 6.20395L8.97169 6.33352L8.98347 6.46374L8.99505 6.59479L9.00622 6.72646L9.01696 6.85857L9.02747 6.9913L9.03778 7.12446L9.04768 7.25803L9.05715 7.39203L9.06642 7.52645L9.07525 7.66129L9.08388 7.79633L9.09211 7.9316L9.09988 8.06727L9.10747 8.20297L9.11463 8.33885L9.12136 8.47475L9.12788 8.61063L9.134 8.74673L9.13989 8.88261L9.14515 9.01851L9.1502 9.15441L9.15484 9.28986L9.15926 9.42533L9.16325 9.5606L9.16683 9.69566L9.17 9.83027L9.17294 9.96449L9.17546 10.0985L9.17757 10.2319L9.17924 10.365L9.18072 10.4975L9.18178 10.6294L9.18241 10.7607L9.18262 10.8915V11.0217L9.18219 11.1511L9.18135 11.2796L9.18031 11.4075L9.17883 11.5346L9.17693 11.661L9.17462 11.7862L9.17208 11.9107L9.16914 12.0342L9.16578 12.1566L9.1622 12.2782L9.1582 12.3985L9.15378 12.5178L9.14915 12.636L9.1441 12.753L9.13882 12.8687L9.13316 12.9833L9.12704 13.0967L9.12072 13.2086L9.11399 13.3192L9.10704 13.4286L9.09968 13.5366L9.09211 13.643L9.08411 13.7482L9.07589 13.8517L9.06725 13.9537L9.05842 14.0542L9.04915 14.1533L9.03968 14.2505L9.03001 14.3464L9.02011 14.4405L9.0098 14.5328L8.99906 14.6235L8.98832 14.7124L8.97715 14.7997L8.9658 14.8851L8.95422 14.9689L8.94242 15.0507L8.93021 15.1306L8.918 15.2089L8.90538 15.285L8.89253 15.3595L8.87969 15.4319L8.86643 15.5023L8.85295 15.5709L8.83949 15.6374L8.82558 15.702L8.8117 15.7644L8.79738 15.825L8.78306 15.8833L8.76854 15.9397L8.75401 15.9939L8.73908 16.0463L8.72413 16.0964L8.70897 16.1443L8.69382 16.1902L8.67845 16.234L8.66307 16.2756L8.64751 16.3149L8.63172 16.3522L8.61592 16.3873L8.60013 16.4201L8.58414 16.4508L8.56814 16.4794L8.55213 16.5057L8.53593 16.5299L8.51973 16.5518L8.50351 16.5714L8.48731 16.5888L8.47109 16.6042L8.45466 16.6172L8.43846 16.6279L8.42204 16.6366L8.40584 16.6429L8.38941 16.6471L8.37321 16.649L8.35699 16.6488L8.34079 16.6463L8.32457 16.6414L8.30858 16.6345L8.29238 16.6254L8.27658 16.6141L8.26059 16.6006L8.2448 16.585L8.22901 16.5672L8.21342 16.5472L8.19806 16.5249L8.18247 16.5007L8.16732 16.4742L8.15216 16.4456L8.13723 16.4149L8.12248 16.3823L8.10775 16.3473L8.09323 16.3103L8.07891 16.2714L8.0648 16.2304L8.05091 16.1873L8.03702 16.1422L8.02354 16.0951L8.01029 16.0461L7.99701 15.995L7.98419 15.942L7.97155 15.8873L7.95913 15.8305L7.94692 15.7718L7.93514 15.7112L7.92356 15.6487L7.91219 15.5846L7.90102 15.5185L7.89028 15.4508L7.87977 15.3812L7.86966 15.3099L7.85976 15.2371L7.85009 15.1624L7.84103 15.086L7.83198 15.008L7.82335 14.9285L7.81513 14.8473L7.80736 14.7646L7.79977 14.6805L7.79261 14.5946L7.78588 14.5075L7.77935 14.4188L7.77346 14.3288L7.76778 14.2374L7.7625 14.1445L7.75767 14.0505L7.75303 13.9552L7.74904 13.8584L7.74546 13.7606L7.74209 13.6615L7.73935 13.5612L7.73703 13.4598L7.73513 13.3571L7.73345 13.2536L7.73241 13.1491L7.73178 13.0433V12.9368L7.73198 12.8291L7.73282 12.7208L7.73388 12.6114L7.73556 12.5014L7.73787 12.3903L7.74041 12.2786L7.74356 12.1661L7.74714 12.0529L7.75115 11.9391L7.75577 11.8247L7.76082 11.7096L7.7663 11.5939L7.7724 11.4778L7.77893 11.3613L7.78588 11.2441L7.79345 11.1267L7.80145 11.0089L7.80987 10.8907L7.81893 10.772L7.82861 10.6534L7.83871 10.5343L7.84925 10.4151L7.86019 10.2958L7.87197 10.1761L7.88398 10.0566L7.8966 9.93692L7.90965 9.81724L7.92333 9.69754L7.93765 9.57807L7.95218 9.45857L7.96733 9.3391L7.98312 9.21982L7.99934 9.10076L8.01618 8.98192L8.03322 8.86349L8.05111 8.74526L8.06922 8.62726L8.08818 8.50966L8.10732 8.3927L8.12712 8.27595L8.14733 8.15962L8.16815 8.04393L8.18943 7.92886L8.21111 7.81423L8.23343 7.70022L8.25615 7.58682L8.2793 7.47407L8.30309 7.36216L8.32731 7.25089L8.35194 7.14046L8.377 7.03064L8.40267 6.92188L8.42879 6.81398L8.4553 6.7067L8.48225 6.60068L8.50962 6.49528L8.5374 6.39117L8.56581 6.28787L8.59465 6.18564L8.62372 6.08467L8.6534 5.98453L8.68328 5.88567L8.71382 5.78786L8.74475 5.69129L8.77592 5.59602L8.80771 5.50176L8.8397 5.409L8.87212 5.31728L8.90495 5.22704L8.938 5.13806L8.97169 5.05035L9.00558 4.96409L9.03989 4.87933L9.07441 4.79581L9.10937 4.714L9.14474 4.63343L9.18031 4.55433L9.21608 4.47691L9.25231 4.40075L9.28892 4.3263L9.32555 4.25352L9.36282 4.1822L9.40007 4.11237L9.43777 4.04442L9.47565 3.97794L9.51376 3.91316L9.55207 3.84983L9.59081 3.78841L9.62953 3.72868L9.66848 3.67061L9.70785 3.61424L9.7472 3.55977L9.78678 3.50675L9.82657 3.45563L9.86658 3.40642L9.90657 3.35886L9.94698 3.313L9.9874 3.26905L10.0278 3.22697L10.0684 3.18659L10.1091 3.1481L10.1499 3.11128L10.191 3.07657L10.2318 3.04353L10.2729 3.0124L10.3141 2.98297L10.3552 2.95562L10.3964 2.92995L10.4375 2.90618L10.4787 2.88452L10.52 2.86454L10.5611 2.84623L10.6023 2.83003L10.6434 2.81573L10.6844 2.80311L10.7255 2.7926L10.7665 2.78376L10.8073 2.77681L10.8482 2.77175L10.8888 2.7686L10.9294 2.76713L10.9699 2.76777L11.0101 2.77008L11.0503 2.77429L11.0903 2.78039L11.1301 2.78818L11.1698 2.79785L11.2092 2.80921L11.2486 2.82267L11.2875 2.8376L11.3263 2.85443L11.365 2.87315L11.4033 2.89356L11.4414 2.91565L11.4791 2.93963L11.5166 2.96509L11.5538 2.99242L11.5907 3.02146L11.6273 3.05217L11.6635 3.08457L11.6995 3.11864L11.7351 3.1544L11.7702 3.19163L11.8052 3.23075L11.8395 3.27115L11.8736 3.31323L11.9073 3.35698L11.9405 3.4022L11.9734 3.4489L12.0056 3.49728L12.0376 3.54692L12.0689 3.59826L12.1001 3.65085L12.1304 3.70512L12.1605 3.76045L12.19 3.81745L12.219 3.87571L12.2475 3.93525L12.2754 3.99625L12.3028 4.05851L12.3298 4.12204L12.3561 4.18684L12.3818 4.25266L12.4068 4.31998L12.4315 4.38836L12.4552 4.45799L12.4786 4.52866L12.5013 4.60039L12.5234 4.67317L12.5449 4.74721L12.5658 4.82212L12.586 4.89805L12.6053 4.97504L12.6243 5.05307L12.6424 5.13176L12.6599 5.21147L12.6767 5.29204L12.6927 5.37365L12.7081 5.45592L12.7228 5.53878L12.7367 5.62273L12.7497 5.70729L12.7622 5.79248L12.7739 5.87851L12.7849 5.96497L12.7952 6.05227L12.8045 6.13998L12.8131 6.22835L12.8211 6.31733L12.8283 6.40673L12.8346 6.49655L12.8401 6.58679L12.8447 6.67767L12.8487 6.76876L12.8518 6.86025L12.8541 6.95197L12.8556 7.0441L12.8563 7.13645L12.856 7.22921L12.855 7.32199L12.8531 7.41496L12.8504 7.50815L12.847 7.60154L12.8426 7.69494L12.8373 7.78835L12.8312 7.88195L12.8243 7.97555L12.8165 8.06897L12.8078 8.16237L12.7984 8.25576L12.7881 8.34916L12.7769 8.44235L12.7647 8.53531L12.7518 8.6281L12.7379 8.72065L12.7232 8.81298L12.7076 8.90513L12.6912 8.99685L12.674 9.08834L12.6558 9.17943L12.6367 9.2701L12.6169 9.36035L12.5961 9.45037L12.5744 9.53978L12.5519 9.62855L12.5285 9.71712L12.5043 9.80503L12.4792 9.89233L12.4531 9.979L12.4264 10.0653L12.3986 10.1507L12.3702 10.2354L12.3407 10.3196L12.3106 10.4031L12.2795 10.4858L12.2475 10.5678L12.2148 10.649L12.1812 10.7294L12.1468 10.8091L12.1117 10.8878L12.0757 10.9656L12.0386 11.0426L12.0012 11.1187L11.9626 11.1938L11.9233 11.2681L11.8833 11.3415L11.8424 11.4136L11.8008 11.4849L11.7584 11.5552L11.7153 11.6246L11.6713 11.6928L11.6267 11.7599L11.5812 11.8259L11.5351 11.8909L11.4882 11.9547L11.4406 12.0174L11.3921 12.079L11.3431 12.1394L11.2934 12.1985L11.2431 12.2565L11.192 12.3133L11.1402 12.3689L11.0878 12.4233L11.0345 12.4764L10.9808 12.5283L10.9265 12.579L10.8715 12.6282L10.8158 12.6764L10.7596 12.7231L10.7027 12.7685L10.6455 12.8127L10.5874 12.8556L10.5288 12.8971L10.4699 12.9372L10.4103 12.9762L10.3501 13.0136L10.2895 13.0498L10.2282 13.0845L10.1665 13.1179L10.1044 13.1499L10.0419 13.1806L9.97877 13.2101L9.9154 13.2378L9.85142 13.2643L9.78699 13.2896L9.72237 13.3134L9.6571 13.3357L9.59165 13.3567L9.52576 13.3765L9.45965 13.3946L9.39291 13.4114L9.32619 13.427L9.25883 13.4408L9.19145 13.4537L9.12367 13.4648L9.05568 13.4749L8.98726 13.4833L8.91886 13.4905L8.85001 13.4964L8.78118 13.5008L8.71192 13.5039L8.64266 13.5056L8.5732 13.5061L8.50351 13.505L8.43384 13.5027L8.36395 13.4991L8.29405 13.4943L8.22395 13.488L8.15386 13.4804L8.08353 13.4715L8.01323 13.4614L7.94313 13.4499L7.87281 13.4373L7.80251 13.4234L7.73241 13.4082L7.66209 13.3918L7.59199 13.3742L7.52189 13.3552L7.452 13.3352L7.38211 13.314L7.31221 13.2915L7.24275 13.2679L7.17308 13.2431L7.10382 13.2174L7.03477 13.1903L6.96571 13.1623L6.89709 13.1331L6.82869 13.1028L6.76047 13.0715L6.69248 13.0391L6.6247 13.0056L6.55734 12.9713L6.49017 12.9358L6.42344 12.8994L6.35713 12.8619L6.29104 12.8237L6.22536 12.7845L6.16009 12.7443L6.09525 12.7031L6.03063 12.6613L5.96663 12.6186L5.90306 12.5748L5.8399 12.5304L5.77739 12.485L5.71529 12.4389L5.6536 12.3922L5.59256 12.3447L5.53214 12.2963L5.47214 12.2473L5.41278 12.1976L5.35404 12.1471L5.29572 12.0962L5.23827 12.0445L5.18122 11.9923L5.12501 11.9395L5.06943 11.8861L5.01449 11.832L4.96019 11.7775L4.9067 11.7226L4.85386 11.6671L4.80166 11.6112L4.75051 11.5548L4.69978 11.498L4.6501 11.4408L4.60105 11.3831L4.55283 11.3253L4.50548 11.267L4.45895 11.2083L4.41327 11.1494L4.36821 11.0903L4.32421 11.0308L4.28128 10.9712L4.23896 10.9113L4.1977 10.8513L4.15728 10.791L4.1177 10.7306L4.07919 10.6702L4.04151 10.6094L4.00488 10.5489L3.96931 10.4881L3.93455 10.4273L3.90089 10.3665L3.86804 10.3055L3.83647 10.2447L3.80573 10.1839L3.77605 10.1233L3.74742 10.0625L3.71984 10.0019L3.69354 9.94156L3.66805 9.88118L3.64363 9.82103L3.62027 9.76107L3.59816 9.70132L3.57711 9.6418L3.55713 9.58226L3.53817 9.52337L3.52049 9.46446L3.50386 9.40578L3.48848 9.34773L3.47396 9.28966L3.46091 9.23202L3.44892 9.1748L3.43796 9.118L3.42828 9.06143L3.41965 9.00546L3.41229 8.94972L3.40617 8.89462L3.40112 8.83992L3.39734 8.78543L3.3946 8.7318L3.39312 8.67837L3.39292 8.62556L3.39396 8.5734L3.39607 8.52165L3.39944 8.47053L3.40407 8.41983L3.40975 8.36998L3.41691 8.32054L3.42513 8.27174L3.4346 8.22357L3.44512 8.17603L3.45713 8.12913L3.47017 8.08284L3.48449 8.0372L3.50006 7.99239L3.51671 7.94823L3.53481 7.90468L3.55396 7.86197L3.57437 7.8199L3.59585 7.77868L3.6188 7.73808L3.64279 7.69811L3.66805 7.65918L3.69458 7.62069L3.72215 7.58326L3.751 7.54644L3.7811 7.51046L3.81226 7.47534L3.84468 7.44106L3.87837 7.40739L3.9131 7.37478L3.9491 7.34281L3.98614 7.31168L4.02445 7.28139L4.06403 7.25193L4.10465 7.22334L4.14634 7.19577L4.18928 7.16885L4.23327 7.14277L4.27833 7.11753L4.32464 7.09313L4.37202 7.06956L4.42064 7.04704L4.47012 7.02518L4.52084 7.00435L4.57263 6.98414L4.62547 6.96502L4.67935 6.94671L4.73431 6.92924L4.79029 6.91263L4.84734 6.89686L4.90523 6.88191L4.96438 6.86782L5.02439 6.85479L5.08543 6.84237L5.14753 6.8308L5.21047 6.82028L5.27447 6.8104L5.33931 6.80157L5.4052 6.79336L5.47194 6.786L5.5395 6.77968L5.60812 6.77401L5.67761 6.76917L5.74791 6.76518L5.81907 6.76201L5.89105 6.75949L5.96389 6.75802L6.03757 6.75718H6.1121L6.18725 6.75781L6.26324 6.75949L6.34009 6.7616L6.41755 6.76475L6.49585 6.76853L6.57481 6.77295L6.65458 6.77821L6.73478 6.78432L6.81584 6.79083L6.89752 6.79819L6.97983 6.80639L7.06277 6.81523L7.14612 6.8245L7.23033 6.8346L7.31495 6.84552L7.40021 6.8569L7.48589 6.86888L7.57199 6.8815L7.65894 6.89476L7.7461 6.90862L7.83366 6.92315L7.92186 6.93808L8.01049 6.95387L8.09932 6.96985L8.18879 6.98668L8.27847 7.00392L8.36857 7.0216L8.45887 7.0399L8.54961 7.05862L8.64055 7.07797L8.73192 7.09754L8.82348 7.11773L8.91528 7.13835L9.00726 7.15938L9.09947 7.18083L9.19188 7.20272L9.2843 7.22502L9.37714 7.24752L9.46976 7.27045L9.56281 7.2938L9.65585 7.31757L9.7489 7.34155L9.84195 7.36574L9.935 7.39035L10.1213 7.44042L10.2143 7.46587L10.3074 7.49154L10.4002 7.51741L10.4931 7.54349L10.5857 7.56978L10.6783 7.59629L10.8629 7.64971L10.9551 7.67665L11.1385 7.73092L11.2299 7.75827L11.3208 7.78561L11.502 7.84072L11.5921 7.86829L11.6818 7.89584L11.8601 7.95115L12.0369 8.00648L12.2117 8.06181L12.3845 8.11671L12.4702 8.14426L12.5552 8.17141L12.6398 8.19875L12.7236 8.22567L12.807 8.25261L13.2139 8.38514L13.2931 8.41122L13.3716 8.43687L13.4495 8.46254L13.9713 8.6344L14.0425 8.65775L14.1126 8.68109L14.2503 8.72632L14.3839 8.7705L14.4494 8.79196L14.5138 8.81321L14.5772 8.83403L14.6395 8.85442L14.7008 8.87441L14.761 8.89419L14.8201 8.91354L14.8782 8.93248L14.9911 8.96907L15.0993 9.00399L15.1517 9.02103L15.2028 9.03745L15.3957 9.09888L15.4849 9.12706L15.5274 9.1403L15.5689 9.15335L15.6089 9.16576L15.7215 9.20047L15.7565 9.21099L15.7902 9.2213L15.8224 9.23097L15.8533 9.24022L15.8828 9.24885L15.911 9.25726L15.9379 9.26505L15.9632 9.27241L16.0101 9.28587L16.0314 9.29176L16.0512 9.29745L16.0697 9.3025L16.0868 9.30712L16.1024 9.31111L16.1167 9.3149L16.1295 9.31807L16.1409 9.32101L16.1508 9.32332L16.1592 9.32521L16.1664 9.32668L16.1718 9.32774L16.176 9.32836L16.1788 9.32858L16.18 9.32836L16.1798 9.32774L16.1781 9.32668L16.175 9.32521L16.1703 9.32332L16.1642 9.32122L16.1567 9.31848L16.1476 9.31553L16.1373 9.31195L16.1253 9.30817L16.112 9.30418L16.0971 9.29956L16.0809 9.29471L16.063 9.28966L16.0438 9.28399L16.0232 9.2781L15.9775 9.26548L15.9525 9.25873L15.9262 9.25159L15.8982 9.24423L15.8689 9.23643L15.8382 9.22866L15.8059 9.22046L15.7725 9.21183L15.7375 9.2032L15.7011 9.19438L15.6634 9.18511L15.6241 9.17564L15.5836 9.16617L15.5418 9.15629L15.4984 9.14641L15.4538 9.1361L15.4077 9.1258L15.3603 9.11528L15.3117 9.10477L15.2616 9.09382L15.2102 9.08288L15.1037 9.06079L15.0483 9.04944L14.9919 9.03829L14.934 9.02671L14.8751 9.01536L14.8147 9.00378L14.7532 8.99223L14.6265 8.96887L14.4949 8.94551L14.4275 8.93395L14.289 8.91059L14.2181 8.89904L14.1459 8.88766L14.0728 8.87611L13.9985 8.86473L13.9231 8.85338L13.8467 8.84223L13.7692 8.83109L13.6907 8.82014L13.6114 8.8092L13.5307 8.79848L13.4493 8.78797L13.367 8.77743L13.2836 8.76735L13.1992 8.75725L13.1139 8.74737L13.0278 8.73747L12.9409 8.72802L12.8531 8.71875L12.7643 8.70971L12.6748 8.70087L12.5845 8.69224L12.4933 8.68383L12.4013 8.67584L12.3087 8.66806L12.2153 8.66047L12.1212 8.65334L12.0264 8.64638L11.9311 8.63965L11.8349 8.63335L11.738 8.62746L11.6408 8.62178L11.5427 8.61652L11.4442 8.61147L11.345 8.60684L11.2454 8.60263L11.1452 8.59864L11.0446 8.59527L10.9436 8.59212L10.8419 8.58938L10.74 8.58686L10.6375 8.58496L10.5347 8.5835L10.4316 8.58244L10.328 8.5816L10.2242 8.5814L10.12 8.5816L10.0156 8.58224L9.91098 8.58328L9.80615 8.58475L9.7009 8.58665L9.59564 8.58897L9.49017 8.59191L9.3845 8.59506L9.27882 8.59885L9.17294 8.60306L9.06705 8.60789L8.96095 8.61294L8.85506 8.61863L8.74896 8.62493L8.64286 8.63145L8.53697 8.63861L8.43087 8.64618L8.325 8.65417L8.21931 8.66281L8.11364 8.67185L8.00818 8.68132L7.90272 8.6914L7.79766 8.70192L7.69263 8.71286L7.588 8.72444L7.48338 8.73642L7.37916 8.74884L7.27538 8.76187L7.17181 8.77535L7.06846 8.78922L6.96571 8.80353L6.8632 8.81847L6.76111 8.83383L6.65943 8.8496L6.55818 8.866L6.45754 8.88284L6.35733 8.89988L6.25756 8.91775L6.15841 8.93583L6.05988 8.95435L5.96178 8.97349L5.86432 8.99284L5.76749 9.01282L5.67129 9.03324L5.57593 9.05386L5.48098 9.07509L5.38689 9.09677L5.29364 9.11864L5.20079 9.14116L5.10901 9.16386L5.01785 9.18702L4.92754 9.21078L4.83807 9.23455L4.74946 9.25895L4.66167 9.28356L4.57472 9.3086L4.48883 9.33384L4.40358 9.35971L4.31959 9.38559L4.23622 9.41187L4.15413 9.43859L4.07287 9.46553L3.99267 9.49265L3.9133 9.52022L3.83521 9.54777L3.75815 9.57596L3.68194 9.60415L3.60702 9.63254L3.53334 9.66136L3.4605 9.69018L3.38891 9.7192L3.3184 9.74866L3.24914 9.77811L3.18115 9.80777L3.1142 9.83743L3.04853 9.86752L2.98411 9.89738L2.92095 9.92768L2.85905 9.95797L2.79843 9.98826L2.73886 10.0188L2.68075 10.0493L2.62413 10.08L2.56856 10.1105L2.51446 10.1412L2.46162 10.1719L2.41024 10.2026L2.36015 10.2333L2.3113 10.2638L2.26415 10.2945L2.21825 10.325L2.17364 10.3555L2.13048 10.386L2.0888 10.4163L2.04858 10.4466L2.00986 10.4767L1.9726 10.5066L1.9366 10.5364L1.90229 10.5661L1.86945 10.5956L1.83787 10.6248L1.80798 10.6538L1.77956 10.6829L1.75261 10.7115L1.72714 10.7399L1.70335 10.7678L1.68083 10.7958L1.65999 10.8234L1.64062 10.8505L1.62294 10.8776L1.60652 10.9042L1.59178 10.9304L1.57873 10.9563L1.56715 10.982L1.55705 11.007L1.54842 11.0318L1.54147 11.0562L1.53621 11.08L1.53221 11.1036L1.5301 11.1265L1.52926 11.1492L1.5301 11.1713L1.53263 11.1927L1.53642 11.2138L1.5421 11.2344L1.54905 11.2544L1.55768 11.274L1.56799 11.2929L1.57978 11.3112L1.59305 11.3291L1.60799 11.3463L1.62441 11.3627L1.6423 11.3787L1.66167 11.3941L1.68272 11.4088L1.70546 11.4229L1.72946 11.4363L1.75514 11.449L1.78208 11.4612L1.81071 11.4725L1.84103 11.4833L1.8726 11.4931L1.90565 11.5024L1.94039 11.5108L1.97639 11.5186L2.01407 11.5255L2.053 11.5318L2.09342 11.5373L2.13554 11.5422L2.1789 11.5459L2.22353 11.5491L2.26984 11.5516L2.31742 11.5531L2.36647 11.5537H2.41679L2.46856 11.5529L2.52182 11.5512L2.57635 11.5485L2.63213 11.5451L2.68938 11.5409L2.7479 11.5359L2.80769 11.5298L2.86875 11.523L2.93126 11.5152L2.99483 11.5068L3.05967 11.4974L3.12599 11.487L3.19334 11.4759L3.26199 11.4637L3.33166 11.4509L3.40282 11.437L3.4748 11.4222L3.54827 11.4067L3.62258 11.3901L3.69816 11.3728L3.77478 11.3545L3.85268 11.3354L3.9314 11.3154L4.0114 11.2944L4.09224 11.2725L4.17434 11.2498L4.25729 11.2262L4.34127 11.2018L4.42612 11.1763L4.51201 11.1503L4.59873 11.1231L4.6865 11.0952L4.77513 11.0663L4.8646 11.0367L4.95513 11.006L5.04628 10.9746L5.13826 10.9424L5.23111 10.9092L5.32479 10.8753L5.41908 10.8406L5.51424 10.8049L5.61003 10.7685L5.70645 10.7312L5.80369 10.6934L5.90159 10.6544L6.0001 10.6149L6.09926 10.5745L6.19904 10.5333L6.29924 10.4914L6.40029 10.4487L6.50154 10.4054L6.60342 10.3612L6.70594 10.3164L6.80868 10.2708L6.91204 10.2245L7.01583 10.1776L7.12002 10.1298L7.22444 10.0817L7.32948 10.0326L7.43453 9.983L7.5402 9.93273L7.64609 9.88202L7.75219 9.8305L7.85849 9.77852L7.96502 9.72593L8.07175 9.67273L8.17869 9.61908L8.28585 9.56481L8.3932 9.51012L8.50056 9.45501L8.60793 9.39925L8.7155 9.34308L8.82307 9.2863L8.93064 9.2293L9.03821 9.17186L9.14578 9.11381L9.25335 9.05553L9.36092 8.99705L9.46829 8.93794L9.57543 8.87862L9.68259 8.8191L9.78953 8.75915L10.003 8.6384L10.1093 8.57761L10.3213 8.4556L10.532 8.33275L10.7415 8.20927L10.8455 8.14743L10.9492 8.08537L11.0526 8.02332L11.1555 7.96126L11.2578 7.8992L11.3599 7.83693L11.5622 7.71284L11.6624 7.65078L11.7622 7.58872L11.9601 7.46523L12.058 7.4036L12.1553 7.34218L12.2519 7.28096L12.3477 7.21976L12.443 7.15897L12.5373 7.09838L12.631 7.038L12.8163 6.9181L12.9074 6.85878L12.9979 6.79966L13.0876 6.74098L13.2644 6.62465L13.3514 6.56722L13.6067 6.39747L13.7722 6.28683L13.8535 6.23234L13.9337 6.17828L14.0128 6.12505L14.0909 6.07226L14.168 6.0203L14.465 5.81856L14.5366 5.76998L14.6759 5.67511L14.8104 5.58317L14.8761 5.53858L14.9403 5.49483L15.0033 5.45171L15.0652 5.40963L15.1256 5.3684L15.1849 5.32823L15.2994 5.2504L15.3548 5.21294L15.4089 5.17655L15.4615 5.141L15.5628 5.07305L15.6114 5.04067L15.7045 4.97903L15.7491 4.95L15.7921 4.92181L15.8337 4.8949L15.8742 4.86902L15.9129 4.84441L15.9504 4.82085L15.9864 4.79855L16.0209 4.7773L16.0539 4.75732L16.0855 4.73838L16.1158 4.72093L16.1444 4.70453L16.1716 4.68937L16.1975 4.6755L16.2217 4.66286L16.2447 4.65151L16.2659 4.6414L16.2857 4.63259L16.304 4.625L16.3209 4.6189L16.3362 4.61385L16.3501 4.61027L16.3625 4.60796L16.3733 4.60692L16.3825 4.60733L16.3905 4.60902L16.3969 4.61197L16.4017 4.61639L16.4049 4.62205L16.4068 4.62921L16.4072 4.63762L16.4059 4.64752L16.4032 4.65867L16.399 4.67108L16.3933 4.68495L16.3861 4.70011L16.3775 4.71672L16.3674 4.73482L16.3558 4.75417L16.3425 4.77479L16.328 4.79686L16.312 4.82022L16.2943 4.84505L16.2754 4.87113L16.255 4.89868L16.2331 4.9275L16.2097 4.95757L16.1849 4.98913L16.1588 5.02194L16.1312 5.05624L16.0716 5.12859L16.0064 5.20621L15.9718 5.24702L15.9358 5.2891L15.8984 5.33244L15.8596 5.37703L15.8194 5.42289L15.7779 5.47002L15.7352 5.51839L15.6912 5.56803L15.6457 5.61895L15.599 5.6709L15.551 5.72412L15.5018 5.77859L15.4512 5.83435L15.3464 5.94898L15.2367 6.06827L15.1222 6.19196L15.0031 6.31984L14.8791 6.45216L14.6852 6.65789L14.4814 6.87224L14.3404 7.01992L14.1214 7.24752L14.0467 7.32494L13.9709 7.40317L13.8941 7.48227L13.8164 7.562L13.7381 7.64258L13.6587 7.72376L13.5785 7.8056L13.4975 7.88805L13.3331 8.05488L13.1655 8.224L13.0807 8.30919L12.9952 8.39522L12.822 8.56835L12.6462 8.74315L12.5573 8.83109L12.4679 8.91943L12.2872 9.09697L12.1045 9.27577L12.0123 9.36538L11.9197 9.45522L11.8267 9.54524L11.7332 9.63548L11.6393 9.72573L11.545 9.81618L11.3553 9.99687L11.2599 10.0873L11.1642 10.1778L11.0682 10.2682L10.972 10.3585L10.8753 10.4487L10.7787 10.5388L10.6817 10.6286L10.5846 10.7182L10.4874 10.8076L10.3899 10.8968L10.2922 10.9858L10.1945 11.0743L10.0969 11.1627L9.99898 11.2506L9.9011 11.3381L9.80321 11.4252L9.70531 11.5119L9.60744 11.5979L9.50954 11.6837L9.41165 11.7687L9.31398 11.8533L9.21651 11.9374L9.11905 12.0207L9.02158 12.1036L8.92452 12.1856L8.82749 12.267L8.73065 12.3478L8.63403 12.4278L8.53783 12.5068L8.44161 12.5851L8.34584 12.6627L8.25048 12.7395L8.15533 12.8152L8.06058 12.8901L7.96606 12.9642L7.87197 13.0372L7.77829 13.1093L7.68504 13.1804L7.59242 13.2505L7.50001 13.3195L7.40823 13.3874L7.31686 13.4543L7.22592 13.5199L7.13561 13.5845L7.04594 13.648L6.95667 13.7101L6.86804 13.7713L6.78005 13.8311L6.69269 13.8895L6.60596 13.9467L6.51987 14.0029L6.43459 14.0574L6.34997 14.1108L6.26598 14.1628L6.18261 14.2135L6.1001 14.2627L6.01842 14.3104L5.93738 14.3569L5.85716 14.402L5.7778 14.4453L5.69929 14.4874L5.6216 14.528L5.54478 14.5669L5.46877 14.6045L5.39382 14.6405L5.31951 14.6748L5.24626 14.7076L5.17385 14.739L5.10249 14.7686L5.03196 14.7966L4.9625 14.8231L4.89408 14.8479L4.8265 14.871L4.75998 14.8925L4.6945 14.9125L4.63009 14.9306L4.56672 14.9472L4.50442 14.9619L4.44295 14.975L4.38273 14.9865L4.3238 14.9962L4.26569 15.004L4.20887 15.0103L4.15307 15.0147L4.09833 15.0177L4.04487 15.0185L3.99246 15.0179L3.9413 15.0154L3.89119 15.0111L3.84237 15.0053L3.79458 14.9975L3.74825 14.988L3.70278 14.9767L3.65879 14.9636L3.61585 14.9489L3.57437 14.9323L3.53395 14.914L3.4946 14.894L3.4567 14.8721L3.42008 14.8485L3.38472 14.8231L3.35039 14.7962L3.31756 14.7673L3.28578 14.7366L3.25546 14.7044L3.2264 14.6704L3.19862 14.6348L3.17209 14.5974L3.14683 14.5583L3.12284 14.5174L3.10009 14.4747L3.07884 14.4306L3.05863 14.3847L3.03989 14.3374L3.02243 14.2882L3.0062 14.2374L2.99125 14.1849L2.97779 14.131L2.96558 14.0753L2.95464 14.0181L2.94494 13.9594L2.93654 13.899L2.92938 13.8372L2.92369 13.7738L2.91927 13.709L2.9161 13.6426L2.91422 13.5748L2.91359 13.5056L2.91442 13.4347L2.91633 13.3626L2.91968 13.2892L2.92432 13.2143L2.93001 13.1379L2.93717 13.0603L2.94558 12.9814L2.95527 12.9011L2.96622 12.8197L2.97843 12.7368L2.99189 12.6528L3.00641 12.5676L3.02243 12.4812L3.03946 12.3937L3.058 12.3051L3.07757 12.2153L3.09841 12.1244L3.1203 12.0325L3.14368 11.9395L3.1681 11.8455L3.19357 11.7504L3.22051 11.6545L3.2483 11.5577L3.27755 11.4599L3.30766 11.3613L3.33925 11.2618L3.37167 11.1614L3.40533 11.0604L3.44007 10.9586L3.47607 10.856L3.5129 10.7527L3.55101 10.6488L3.59016 10.544L3.63038 10.4388L3.67163 10.333L3.71395 10.2268L3.75711 10.1199L3.80152 10.0124L3.84678 9.90475L3.89309 9.79642L3.94047 9.68787L3.98866 9.5789L4.03793 9.46951L4.08823 9.35992L4.13918 9.25012L4.19138 9.13989L4.24424 9.02966L4.29811 8.91902L4.35285 8.80857L4.40822 8.69772L4.46463 8.58686L4.52189 8.47622L4.58 8.36536L4.63893 8.25449L4.69851 8.14363L4.75893 8.03299L4.8202 7.92256L4.88207 7.81212L4.9448 7.7021L5.00817 7.59209L5.07218 7.4825L5.13702 7.37311L5.20247 7.26392L5.26858 7.15539L5.3353 7.04704L5.40268 6.93914L5.47067 6.83165L5.5393 6.72478L5.60835 6.61833L5.67802 6.51254L5.74834 6.40737L5.81907 6.3028L5.89021 6.19869L5.96201 6.09539L6.03421 5.99296L6.10705 5.89113L6.1801 5.79017L6.25357 5.68982L6.32765 5.59053L6.40197 5.49188L6.47671 5.39427L6.55165 5.29773L6.62721 5.20202L6.70279 5.10736L6.77878 5.01353L6.8552 4.92097L6.93182 4.82946L7.00867 4.73901L7.08572 4.64963L7.16298 4.56149L7.24044 4.4746L7.31813 4.38899L7.39602 4.30441L7.47411 4.22133L7.55221 4.13928L7.6303 4.05894L7.70862 3.97964L7.78715 3.90181L7.86565 3.82543L7.94418 3.75034L8.0227 3.67693L8.10123 3.60477L8.17973 3.5343L8.25826 3.46531L8.33678 3.39779L8.4151 3.33174L8.4934 3.26757L8.57172 3.20468L8.64982 3.14368L8.72791 3.08414L8.8058 3.0265L8.88349 2.97035L8.96095 2.91606L9.03841 2.86327L9.11547 2.81236L9.19252 2.76335L9.26914 2.71602L9.34556 2.67036L9.42175 2.62661L9.49754 2.58455L9.57312 2.54458L9.64827 2.50629L9.72321 2.4699L9.79773 2.4354L9.87183 2.4028L9.94572 2.37209L10.0192 2.34327L10.0922 2.31634L10.1647 2.29131L10.2369 2.26838L10.3084 2.24734L10.3798 2.2282L10.4503 2.21116L10.5206 2.19602L10.5903 2.18277L10.6596 2.17162L10.7282 2.16236L10.7962 2.15521L10.8638 2.14995L10.9307 2.14679L10.997 2.14553L11.0629 2.14637L11.1279 2.14932L11.1926 2.15416L11.2564 2.1611L11.3195 2.16993L11.3821 2.18087L11.4439 2.1937L11.5052 2.20864L11.5656 2.22547L11.6254 2.2444L11.6843 2.26544L11.7426 2.28836L11.8003 2.31319L11.8572 2.34011L11.9132 2.36893L11.9683 2.39985L12.0228 2.43267L12.0765 2.46738L12.1296 2.50419L12.1816 2.54268L12.2327 2.58329L12.2832 2.62577L12.3327 2.67016L12.3815 2.71645L12.4293 2.76462L12.4765 2.81467L12.5226 2.86664L12.5679 2.92048L12.6123 2.97601L12.6558 3.03345L12.6984 3.09256L12.7401 3.15356L12.7809 3.21625L12.8207 3.28083L12.8596 3.34688L12.8977 3.41483L12.9348 3.48445L12.971 3.55576L13.0061 3.62876L13.0404 3.70321L13.0737 3.77937L13.1059 3.8572L13.1373 3.93652L13.1678 4.0175L13.1973 4.09995L13.2257 4.1839L13.2533 4.26909L13.2798 4.35596L13.3053 4.4443L13.3299 4.53391L13.3535 4.625L13.376 4.71735L13.3977 4.81117L13.4183 4.90604L13.4379 5.00238L13.4564 5.09999L13.4741 5.19865L13.4907 5.29857L13.5065 5.39975L13.521 5.50176L13.5347 5.60506L13.5474 5.7096L13.5592 5.81498L13.5699 5.92143L13.5796 6.02871L13.5882 6.13704L13.596 6.24622L13.6027 6.35645L13.6084 6.4673L13.6133 6.57923L13.617 6.69177L13.62 6.80515L13.6217 6.91916L13.6227 7.03381L13.6225 7.14907L13.6215 7.26519L13.6196 7.38172L13.6166 7.4989L13.6126 7.6165L13.6078 7.7345L13.6021 7.85313L13.5954 7.972L13.5878 8.09147L13.5792 8.21117L13.5697 8.33107L13.5592 8.45139L13.5478 8.57172L13.5356 8.69247L13.5225 8.81321L13.5084 8.93416L13.4937 9.05533L13.4779 9.17648L13.4613 9.29745L13.4436 9.4186L13.4253 9.53957L13.4061 9.66072L13.3861 9.78147L13.3651 9.90223L13.3434 10.0225L13.3209 10.1429L13.2975 10.2628L13.2735 10.3825L13.2485 10.502L13.2228 10.6208L13.1962 10.7394L13.1691 10.8575L13.1411 10.975L13.1122 11.0922L13.0828 11.2087L13.0527 11.3247L13.0217 11.4401L12.9899 11.5548L12.9577 11.6688L12.9247 11.782L12.891 11.8945L12.8567 12.0062L12.8215 12.1173L12.786 12.2273L12.7497 12.3365L12.7127 12.4446L12.6752 12.5519L12.6371 12.6583L12.5984 12.7635L12.559 12.8678L12.5192 12.9709L12.4788 13.0729L12.4378 13.1739L12.3963 13.2736L12.3544 13.3723L12.3119 13.4694L12.2687 13.5656L12.2254 13.6602L12.1814 13.7536L12.1369 13.8458L12.0921 13.9364L12.0466 14.0258L12.0009 14.1138L11.9548 14.2002L11.9083 14.285L11.8614 14.3685L11.814 14.4505L11.7664 14.5309L11.7184 14.6096L11.67 14.6868L11.6214 14.7623L11.5725 14.8363L11.5231 14.9085L11.4736 14.9792L11.4237 15.048L11.3738 15.1151L11.3233 15.1805L11.2728 15.244L11.2221 15.3058L11.1711 15.3658L11.12 15.4241L11.0686 15.4802L11.017 15.5347L10.9654 15.5873L10.9134 15.638L10.8617 15.6868L10.8094 15.7337L10.7572 15.7785L10.705 15.8214L10.6526 15.8625L10.6002 15.9016L10.5478 15.9386L10.4954 15.9735L10.4427 16.0066L10.3903 16.0377L10.3377 16.0667L10.2851 16.0936L10.2327 16.1185L10.18 16.1414L10.1276 16.1622L10.0752 16.1809L10.023 16.1976L9.97077 16.2121L9.91857 16.2247L9.86658 16.235L9.81458 16.2434L9.76279 16.2495L9.7112 16.2537L9.65964 16.2558H9.60828L9.55712 16.2537L9.50617 16.2495L9.45544 16.2432L9.40492 16.2348L9.3546 16.2243L9.30451 16.2117L9.25462 16.1971L9.20493 16.1803L9.15568 16.1616L9.10663 16.1408L9.05778 16.1178L9.00937 16.093L8.96116 16.0659L8.91317 16.0371L8.86559 16.0059L8.81843 15.9729L8.77148 15.9378L8.72497 15.9007L8.67886 15.8616L8.63319 15.8208L8.58772 15.7777L8.54266 15.7329L8.49805 15.686L8.45382 15.6372L8.41005 15.5867L8.36669 15.5341L8.32373 15.4796L8.28121 15.4234L8.23932 15.3652L8.19763 15.3052L8.15658 15.2436L8.11595 15.1801L8.07574 15.1148L8.03596 15.0478L7.99681 14.979L7.95807 14.9085L7.91998 14.8363L7.88228 14.7627L7.84524 14.6872L7.8086 14.6102L7.7724 14.5315L7.73683 14.4514L7.70187 14.3696L7.66737 14.2863L7.63347 14.2015L7.60021 14.1152L7.56736 14.0275L7.53515 13.9385L7.50359 13.8481L7.47264 13.7562L7.4421 13.663L7.41222 13.5685L7.38295 13.4728L7.35433 13.3756L7.32612 13.2776L7.29875 13.1781L7.2718 13.0776L7.24549 12.9757L7.2198 12.8729L7.19476 12.769L7.17034 12.6642L7.14655 12.5582L7.1234 12.4513L7.10088 12.3434L7.07897 12.2347L7.05772 12.1251L7.03708 12.0146L7.01687 11.9031L6.9975 11.7912L6.97876 11.6783L6.96066 11.5649L6.94319 11.4507L6.92636 11.3358L6.91014 11.2203L6.89457 11.1042L6.87962 10.9876L6.8653 10.8705L6.85162 10.7529L6.83857 10.6349L6.82615 10.5165L6.81437 10.3978L6.8032 10.2788L6.79269 10.1593L6.78299 10.0396L6.77373 9.91968L6.7651 9.79977L6.7571 9.67946L6.74973 9.55913L6.743 9.43881L6.73689 9.31827L6.73143 9.19773L6.72658 9.07742L6.72216 8.95709L6.71858 8.83677L6.71543 8.71664L6.7131 8.59653L6.71122 8.47683L6.70995 8.35715L6.70932 8.23809L6.70911 8.11902L6.70975 8.00039L6.71079 7.88216L6.71247 7.76436L6.71457 7.64699L6.71752 7.53003L6.72089 7.41371L6.72468 7.29779L6.72912 7.18274L6.73417 7.06809L6.73983 6.95407L6.74595 6.8407L6.75248 6.72815L6.75963 6.61645L6.76743 6.50538L6.77563 6.39515L6.78426 6.28576L6.79353 6.17723L6.8032 6.06974L6.81331 5.96307L6.82405 5.85749L6.83521 5.75272L6.84679 5.64924L6.859 5.54658L6.87162 5.44518L6.88447 5.34485L6.89793 5.24577L6.91184 5.14773L6.92615 5.05098L6.94088 4.95548L6.95604 4.86102L6.97163 4.76806L6.98762 4.67634L7.00403 4.58609L7.02067 4.49712L7.03792 4.40959L7.05541 4.32335L7.07328 4.2388L7.09139 4.15548L7.10992 4.07367L7.12886 3.9935L7.14803 3.91484L7.1676 3.83764L7.1876 3.76212L7.20781 3.68808L7.22823 3.61593L7.24887 3.54524L7.26991 3.47625L7.29139 3.40873L7.31285 3.34309L7.33475 3.27915L7.35685 3.21709L7.37916 3.1565L7.40168 3.09802L7.42443 3.04102L7.44758 2.98591L7.47074 2.93269L7.4941 2.88115L7.51768 2.83171L7.54147 2.78397L7.56546 2.7379L7.58947 2.69392L7.61367 2.65185L7.6381 2.61168L7.66272 2.57341L7.68735 2.53701L7.7122 2.50251L7.73703 2.47011L7.76209 2.4394L7.78715 2.41079L7.81218 2.38408L7.83745 2.35946L7.86271 2.33675L7.88819 2.31592L7.91366 2.2972L7.93912 2.28037L7.96459 2.26565L7.99008 2.25281L8.01554 2.24209L8.04123 2.23325L8.0667 2.22631L8.09237 2.22147L8.11786 2.21874L8.14332 2.21789L8.16879 2.21895L8.19428 2.2221L8.21954 2.22715L8.245 2.23409L8.27026 2.24314L8.29532 2.25429L8.32058 2.26733L8.34541 2.28226L8.37047 2.29909L8.3953 2.31781L8.41993 2.33864L8.44456 2.36136L8.46898 2.38597L8.4934 2.41247L8.51762 2.44087L8.54161 2.47116L8.56561 2.50335L8.5894 2.53743L8.61298 2.57341L8.63634 2.61127L8.65949 2.65081L8.68265 2.69225L8.70539 2.73537L8.72812 2.78039L8.75066 2.82708L8.77275 2.87568L8.79486 2.92574L8.81654 2.97792L8.83822 3.03155L8.85948 3.08688L8.88055 3.14388L8.90137 3.20257L8.92201 3.26275L8.94242 3.32458L8.96242 3.38811L8.9822 3.45312L9.00178 3.5198L9.02115 3.58795L9.04011 3.65758L9.05885 3.72868L9.07715 3.80125L9.09526 3.87509L9.11315 3.95061L9.13062 4.02738L9.14789 4.10543L9.16472 4.18494L9.18135 4.26571L9.19757 4.34776L9.21357 4.43105L9.22915 4.51563L9.24451 4.60123L9.25947 4.68812L9.27399 4.77626L9.28829 4.86544L9.3024 4.95569L9.31588 5.04698L9.32913 5.13953L9.34218 5.23293L9.3546 5.32718L9.36681 5.42246L9.37882 5.5188L9.3904 5.616L9.40154 5.71381L9.41228 5.81267L9.42282 5.91239L9.43292 6.01274L9.4426 6.1137L9.45186 6.2155L9.46092 6.31816L9.46955 6.42123L9.47776 6.52494L9.48575 6.62928L9.49334 6.73405L9.50048 6.83943L9.50744 6.94544L9.51376 7.05168L9.51985 7.15854L9.52554 7.26562L9.53102 7.37311L9.53607 7.4808L9.5407 7.58892L9.54491 7.69727L9.54892 7.8058L9.5525 7.91456L9.55565 8.02352L9.55859 8.13248L9.56111 8.24167L9.56322 8.35083L9.56512 8.46002L9.56659 8.56919L9.56765 8.67837L9.5689 8.8965V9.00546L9.5687 9.11401L9.56806 9.22257L9.56723 9.33089L9.56596 9.43881L9.5626 9.65399L9.56027 9.76087L9.55775 9.86752L9.55501 9.97374L9.55186 10.0796L9.54849 10.1849L9.5447 10.2897L9.5407 10.3938L9.53628 10.4975L9.53165 10.6006L9.52681 10.703L9.51627 10.9058L9.50449 11.1057L9.49817 11.2045L9.49165 11.3026L9.48492 11.3997L9.47796 11.4961L9.4708 11.5916L9.45565 11.7797L9.44765 11.8722L9.43945 11.9639L9.42261 12.144L9.41375 12.2326L9.40471 12.3199L9.39565 12.4061L9.38618 12.4913L9.37671 12.5752L9.36704 12.6581L9.35714 12.7397L9.34703 12.8201L9.33693 12.8992L9.32662 12.9768L9.31608 13.0534L9.30535 13.1287L9.29461 13.2025L9.28387 13.2751L9.26178 13.416L9.23926 13.5511L9.22766 13.6167L9.21631 13.6807L9.20473 13.7431L9.19293 13.8041L9.18135 13.8637L9.16957 13.9217L9.15779 13.9781L9.14578 14.033L9.134 14.0864L9.12199 14.1382L9.10998 14.1884L9.098 14.237L9.08599 14.2839L9.074 14.3292L9.062 14.3729L9.04999 14.415L9.03821 14.4554L9.0262 14.4941L9.01422 14.5311L9.00241 14.5667L8.99043 14.6003L8.97863 14.6323L8.96705 14.6626L8.95527 14.6912L8.94369 14.7181L8.93211 14.7434L8.92074 14.7667L8.90937 14.7886L8.89801 14.8086L8.88685 14.8269L8.8759 14.8435L8.86496 14.8584L8.85422 14.8715L8.84348 14.8828L8.83297 14.8925L8.82243 14.9005L8.81233 14.9066L8.80223 14.9112L8.79212 14.914L8.78245 14.915L8.77275 14.9144L8.76348 14.9121L8.75422 14.9079L8.74518 14.9022L8.73634 14.8946L8.72748 14.8856L8.71908 14.8746L8.71085 14.8622L8.70286 14.8479L8.69508 14.8321L8.6875 14.8147L8.68013 14.7955L8.67318 14.7747L8.66624 14.7524L8.65972 14.7282L8.6534 14.7028L8.64728 14.6754L8.64139 14.6468L8.63593 14.6163L8.63065 14.5845L8.6256 14.5511L8.62077 14.5162L8.61633 14.4796L8.61235 14.4417L8.60856 14.4022L8.60498 14.3614L8.60161 14.3191L8.59866 14.2751L8.59613 14.2299L8.59381 14.1834L8.59193 14.1354L8.59023 14.086L8.58876 14.0353L8.58772 13.9833L8.58708 13.9299L8.58688 13.8754V13.8195L8.58708 13.7623L8.58772 13.704L8.58876 13.6442L8.59023 13.5835L8.59193 13.5216L8.59381 13.4585L8.59635 13.3944L8.59909 13.3289L8.60224 13.2627L8.60562 13.1951L8.6096 13.1268L8.61382 13.0574L8.61824 12.9869L8.62329 12.9154L8.62855 12.843L8.63423 12.7698L8.64035 12.6955L8.64665 12.6205L8.6534 12.5447L8.66056 12.4679L8.66792 12.3905L8.67592 12.3123L8.68412 12.2334L8.69275 12.1537L8.70161 12.0733L8.71108 11.9923L8.72075 11.9107L8.73065 11.8285L8.74117 11.7456L8.75191 11.6621L8.76308 11.5783L8.77465 11.4938L8.78643 11.409L8.79865 11.3236L8.81129 11.2378L8.82411 11.1517L8.85107 10.9784L8.86516 10.8911L8.87948 10.8038L8.894 10.7161L8.90916 10.6282L8.92452 10.54L8.94011 10.4517L8.9561 10.3633L8.97253 10.2748L8.98916 10.186L9.00622 10.0974L9.02348 10.0087L9.04115 9.91988L9.05905 9.83113L9.07715 9.74236L9.11463 9.56522L9.13377 9.47688L9.15314 9.38853L9.17294 9.3004L9.19293 9.21246L9.21314 9.12496L9.23377 9.03745L9.25441 8.95036L9.27546 8.86349L9.29692 8.77703L9.3184 8.69099L9.3403 8.60517L9.36239 8.51975L9.3845 8.43498L9.40702 8.35042L9.42977 8.26648L9.4527 8.18298L9.47585 8.1001L9.49923 8.01763L9.5228 7.93581L9.54659 7.85461L9.5706 7.77383L9.5948 7.6939L9.61902 7.61459L9.64344 7.53613L9.66807 7.4581L9.6929 7.38088L9.71773 7.30452L9.74279 7.2288L9.76805 7.15412L9.79331 7.07987L9.81877 7.00666L9.84426 6.9343L9.86993 6.86299L9.89562 6.7923L9.92131 6.72267L9.94719 6.65388L9.97331 6.58595L9.99918 6.51905L10.0253 6.4532L10.0514 6.38842L10.0775 6.32448L10.1038 6.26159L10.1299 6.19994L10.1562 6.13915L10.1826 6.07942L10.2087 6.02094L10.235 5.9635L10.2611 5.90713L10.2874 5.8518L10.3135 5.79774L10.3396 5.74495L10.3657 5.6932L10.3916 5.64251L10.4175 5.59328L10.4434 5.5451L10.4693 5.49798L10.4949 5.45234L10.5204 5.40773L10.5459 5.36461L10.5712 5.32254L10.5964 5.28173L10.6215 5.24219L10.6465 5.20411L10.6711 5.16708L10.6958 5.13153L10.7202 5.09725L10.7446 5.06401L10.7686 5.03247L10.7926 5.00195L10.8162 4.97273L10.8398 4.94495L10.8629 4.91846L10.8859 4.89342L10.9088 4.86965L10.9313 4.84713L10.9535 4.8259L10.9755 4.80612L10.9972 4.78761L11.0187 4.77057L11.04 4.75458L11.0608 4.74028L11.0814 4.72702L11.1016 4.71524L11.1216 4.70473L11.1412 4.69569L11.1604 4.6879L11.1793 4.68137L11.1981 4.67611L11.2162 4.67233L11.234 4.66981L11.2515 4.66855L11.2686 4.66875L11.2854 4.67002L11.3016 4.67276L11.3176 4.67675L11.333 4.682L11.3482 4.68853L11.3627 4.69632L11.377 4.70536L11.3907 4.71567L11.4041 4.72723L11.417 4.74008L11.4294 4.75417L11.4414 4.7693L11.4528 4.78571L11.4637 4.80338L11.4742 4.82232L11.4843 4.84231L11.4938 4.86356L11.5029 4.88585L11.5113 4.90919L11.5193 4.9338L11.5269 4.95967L11.5338 4.98639L11.5401 5.01437L11.546 5.0434L11.5515 5.07348L11.5561 5.10441L11.5604 5.13659L11.5641 5.16983L11.5673 5.2039L11.5698 5.23925L11.5717 5.27543L11.5732 5.31245L11.574 5.35052L11.5742 5.38945L11.574 5.42941L11.573 5.47022L11.5715 5.51187L11.5694 5.55435L11.5667 5.59769L11.5635 5.64188L11.5595 5.68687L11.5551 5.73273L11.5498 5.77943L11.5441 5.82676L11.5378 5.87473L11.5309 5.92353L11.5233 5.97318L11.5151 6.02325L11.5063 6.07414L11.4968 6.12569L11.4867 6.17787L11.4761 6.23045L11.4648 6.28388L11.4528 6.33772L11.4401 6.39221L11.4271 6.44711L11.4132 6.50264L11.3987 6.55861L11.3837 6.61498L11.3679 6.67178L11.3515 6.72899L11.3347 6.78684L11.317 6.84489L11.2989 6.90337L11.2799 6.96207L11.2606 7.02117L11.2404 7.08071L11.2197 7.14046L11.1983 7.20041L11.1764 7.26057L11.1538 7.32115L11.1307 7.38172L11.1069 7.44253L11.0825 7.50352L11.0574 7.56475L11.032 7.62595L11.0057 7.68737L10.9789 7.7488L10.9515 7.81022L10.9235 7.87185L10.8949 7.9335L10.8659 7.99492L10.8362 8.05655L10.8059 8.11818L10.7749 8.17961L10.7436 8.24103L10.7116 8.30225L10.6789 8.36345L10.6459 8.42447L10.6122 8.48547L10.5781 8.54626L10.5434 8.60664L10.5082 8.667L10.4724 8.72718L10.4362 8.78713L10.3994 8.84665L10.3621 8.90597L10.3244 8.96508L10.2861 9.02377L10.2474 9.08204L10.208 9.14009L10.1684 9.19773L10.1282 9.25517L10.0876 9.31195L10.0466 9.36855L10.0051 9.42449L9.9632 9.48003L9.92088 9.53515L9.87815 9.58985L9.835 9.64411L9.79143 9.69775L9.74743 9.75076L9.70321 9.80335L9.65837 9.85551L9.61333 9.90685L9.56806 9.95774L9.52218 10.0082L9.47608 10.0579L9.42977 10.1069L9.38303 10.1555L9.33586 10.2032L9.28851 10.2504L9.24093 10.2969L9.19315 10.3427L9.14494 10.3877L9.09653 10.4323L9.04788 10.4761L8.99883 10.519L8.94978 10.5613L8.90032 10.6029L8.85085 10.6435L8.80118 10.6837L8.75127 10.723L8.70118 10.7615L8.65086 10.7992L8.60034 10.836L8.54982 10.8722L8.49929 10.9075L8.44836 10.942L8.39761 10.9757L8.34668 11.0087L8.29553 11.0407L8.24437 11.072L8.19321 11.1023L8.14205 11.1318L8.09069 11.1606L8.03954 11.1883L7.98817 11.2153L7.93681 11.2416L7.88566 11.2668L7.8343 11.2912L7.78314 11.3146L7.73198 11.3373L7.68083 11.3591L7.62989 11.38L7.57894 11.4L7.52821 11.4191L7.47747 11.4374L7.42674 11.4549L7.37642 11.4715L7.32612 11.487L7.2758 11.5018L7.22592 11.5157L7.17623 11.5287L7.12655 11.5409L7.07709 11.5523L7.02804 11.5626L6.97919 11.5722L6.93035 11.5809L6.88193 11.5886L6.83395 11.5956L6.78594 11.6017L6.73859 11.6072L6.69121 11.6116L6.64427 11.6152L6.59776 11.6179L6.55143 11.6198L6.50555 11.6208L6.46008 11.621L6.41502 11.6206L6.37018 11.6191L6.32577 11.617L6.28198 11.6141L6.23841 11.6105L6.19546 11.6059L6.15273 11.6006L6.11063 11.5945L6.06895 11.5878L6.02789 11.5802L5.98727 11.572L5.94706 11.563L5.90727 11.5531L5.86833 11.5428L5.82959 11.5316L5.7917 11.5197L5.75423 11.5072L5.71739 11.494L5.68096 11.4801L5.64539 11.4654L5.61023 11.4502L5.5757 11.4345L5.54181 11.4181L5.50878 11.401L5.47613 11.3833L5.44414 11.365L5.41299 11.3461L5.38247 11.3267L5.35257 11.3068L5.32332 11.2862L5.29488 11.2651L5.26711 11.2437L5.23994 11.2216L5.21364 11.1989L5.18815 11.1759L5.16332 11.1524L5.1391 11.1284L5.11595 11.1038L5.09322 11.079L5.07154 11.0537L5.05049 11.028L5.03028 11.0017L5.01091 10.9755L4.99238 10.9485L4.97471 10.9212L4.95765 10.8936L4.94165 10.8659L4.92629 10.8377L4.91197 10.8091L4.89829 10.7802L4.88565 10.7512L4.87366 10.722L4.86272 10.6923L4.85262 10.6624L4.84335 10.6324L4.83492 10.6023L4.82756 10.5718L4.82103 10.5411L4.81535 10.5104L4.8105 10.4794" stroke="var(--stroke-0, #202020)" stroke-width="0.613636" stroke-linecap="round" stroke-linejoin="round"/>
</g>
<defs>
<clipPath id="clip0_0_4">
<rect width="18" height="18" fill="white"/>
</clipPath>
</defs>
</svg>
