<svg width="78" height="39" viewBox="0 0 78 39" fill="none" xmlns="http://www.w3.org/2000/svg">
<path d="M34.28 0C34.6805 0.0286042 34.8989 0.311561 34.7542 0.69885C34.5434 1.26342 34.2666 1.81421 34.0099 2.35893L32.4909 5.54403C30.4498 9.84321 28.3035 14.0911 26.0539 18.2837C27.224 18.0506 34.0949 17.0194 34.8687 17.4008C34.9456 17.4387 34.9376 17.4528 34.9619 17.5343C34.8873 17.6479 34.8545 17.6974 34.7017 17.7081C31.7736 17.9145 28.6086 18.2108 25.7455 18.8398C24.6895 20.5785 23.7018 22.3907 22.5698 24.1006C19.4685 28.7854 14.1522 35.2609 9.15531 37.8397C7.01417 39.0065 4.0169 39.5884 1.86599 38.152C0.974571 37.582 0.234513 36.4941 0.0655084 35.427C-0.503397 31.8354 2.75111 28.2879 5.25742 26.2709C10.9963 21.6528 18.2493 19.8176 25.3008 18.4245C28.2883 12.9375 31.0792 7.3443 33.668 1.65596C33.9086 1.12354 34.063 0.462041 34.28 0Z" fill="#181818"/>
<path d="M24.6756 19.0336C24.752 19.0194 24.7965 19.0253 24.8739 19.0268C24.8947 19.2813 24.3854 20.0253 24.2187 20.3108C22.7603 22.8637 21.1279 25.312 19.3333 27.6382C17.297 30.2714 14.9791 32.7794 12.4501 34.9398C9.81603 37.1899 5.07466 40.0463 1.77437 37.4482C1.17851 36.9431 0.6827 36.1035 0.563211 35.3337C0.0475027 32.0107 3.07004 28.7254 5.35983 26.8321C10.7699 22.3589 17.9321 20.3335 24.6756 19.0336Z" fill="#FEFDFC"/>
<path d="M44.7825 5.66544C44.8572 5.68973 44.937 5.71401 45.006 5.75218C45.115 5.81237 45.1728 5.90066 45.205 6.01811C45.3983 6.71649 37.9021 19.1795 37.0545 20.6151C37.7727 19.9004 40.9037 16.8034 41.8694 17.2648C42.4065 17.9151 40.5211 19.9073 40.7241 20.6977C41.1154 20.9882 42.7615 19.7783 43.0868 19.4483C43.806 18.7196 44.4137 17.9731 45.2894 17.407C45.8331 17.0553 46.4076 16.6865 47.0787 16.6424C47.4316 16.6192 47.8684 16.7501 47.8705 17.1704C47.7748 17.3307 47.8301 17.2783 47.6536 17.3625C47.4664 17.3717 47.4234 17.3218 47.2674 17.2124L47.2147 17.1752C46.0618 17.4209 45.0689 18.2302 44.272 19.0715C44.0352 19.3214 43.5569 19.8991 43.5917 20.2433L43.6812 20.3046C44.4756 20.2635 46.8853 18.266 47.5135 17.634C47.7124 17.4342 48.1472 17.0504 48.3682 17.3393C48.4664 17.8379 47.1697 19.1008 47.5247 19.6619C48.1416 19.8533 52.0322 17.224 52.758 16.6428C53.0859 16.38 53.2153 15.7572 53.6624 15.8055C53.8624 15.9455 53.8598 16.091 53.7427 16.3075C53.403 16.9345 52.9283 17.6013 52.5406 18.1972C53.1442 17.6744 55.8204 15.3438 56.5442 15.9615C57.0726 16.8049 54.7877 19.6869 58.3944 19.2992C60.6261 19.0592 62.7509 18.4844 64.9387 18.0194C67.7975 17.4123 70.6876 16.9618 73.595 16.6699C74.0595 16.6258 78.1618 16.2023 77.9951 16.9337C77.7183 17.2276 77.0789 17.2984 76.6835 17.3981C76.0104 17.569 75.3377 17.7441 74.6672 17.9234L67.7392 19.7977C57.5028 22.5885 48.0286 25.2951 38.0494 28.9546C35.3992 29.9118 32.7848 30.966 30.2113 32.1152C29.6658 32.3626 29.1065 32.628 28.565 32.8826C28.1354 33.0846 26.7421 34.0322 26.359 33.8339L26.3671 33.7196C27.1409 32.56 34.7455 29.7266 36.354 29.102C42.8019 26.7445 49.3396 24.6443 55.9524 22.8062C62.7131 20.918 69.7469 19.2366 76.4288 17.18C74.127 17.1166 70.9418 17.5257 68.6666 17.8997C67.2952 18.1336 65.9274 18.3897 64.5642 18.6677C62.7085 19.0558 58.5391 20.2574 56.8603 19.776C56.4363 19.6544 56.044 19.4001 55.8296 19.0026C55.4076 18.2197 55.8112 17.2261 56.046 16.4447C54.7831 16.8843 53.536 18.0096 52.5549 18.8901C52.2271 19.1839 51.5815 20.0274 51.1391 19.8799C50.869 19.4701 51.9953 17.9427 52.2526 17.5742C51.0194 18.4186 49.6946 19.3068 48.3702 19.987C47.2163 20.5796 46.5037 20.1886 46.9707 18.838C46.0076 19.5777 44.9497 20.4725 43.8111 20.9018C43.1554 21.1491 42.9625 20.8158 42.7973 20.275C42.4055 20.4454 40.4561 22.2157 40.0904 20.885C39.8832 20.1301 40.8801 18.6144 41.2643 17.8838C39.8377 18.5123 38.2852 20.1802 37.1359 21.2684C36.8013 21.5849 36.1357 22.5021 35.692 22.4058C35.3177 22.0012 36.4352 20.4468 36.7096 20.0024C35.9384 20.6992 33.9529 22.3138 32.8093 22.1901C32.1437 22.118 32.3698 21.2036 32.4996 20.7707C31.6459 21.4706 30.146 22.7712 28.9834 22.8791C28.63 22.896 28.2872 22.4502 28.392 22.1159C28.9026 20.4863 31.2035 18.548 32.9296 18.5299C33.2012 18.5271 33.4613 18.7712 33.3788 19.0912C33.2345 19.2273 33.3018 19.1992 33.119 19.235C32.6842 18.9715 32.6026 19.1251 32.1602 19.2312C31.4145 19.41 28.8565 21.4694 29.0789 22.2303L29.1882 22.2759C30.0025 22.196 31.8361 20.636 32.5161 20.0598C32.8783 19.753 33.385 18.9725 33.8408 19.1343C34.1817 19.6343 32.9068 20.6891 32.9688 21.4486C33.0635 21.6079 33.0073 21.5601 33.1804 21.6277C34.2454 21.4905 36.77 19.5137 37.454 18.6721C37.9374 18.0771 38.6423 16.716 39.0459 15.9808C39.9466 14.3383 40.8198 12.6809 41.6648 11.0092C42.561 9.25564 43.5482 7.18116 44.7825 5.66544Z" fill="#181818"/>
<path d="M43.3037 8.86582C43.34 9.16298 42.4101 10.7167 42.2004 11.1082C42.1477 10.8439 43.1196 9.19436 43.3037 8.86582Z" fill="#565758"/>
</svg>
